<?xml version="1.0" encoding="UTF-8" standalone="no"?>
<!DOCTYPE svg PUBLIC "-//W3C//DTD SVG 1.1//EN"
 "http://www.w3.org/Graphics/SVG/1.1/DTD/svg11.dtd">
<!-- Generated by graphviz version 12.2.0 (20241103.1931)
 -->
<!-- Pages: 1 -->
<svg width="418pt" height="292pt"
 viewBox="0.00 0.00 417.75 292.00" xmlns="http://www.w3.org/2000/svg" xmlns:xlink="http://www.w3.org/1999/xlink">
<g id="graph0" class="graph" transform="scale(1 1) rotate(0) translate(4 288)">
<polygon fill="#dcdcdc" stroke="none" points="-4,4 -4,-288 413.75,-288 413.75,4 -4,4"/>
<!-- node0x107a00ad0 -->
<g id="node1" class="node">
<title>node0x107a00ad0</title>
<path fill="#f8e807" stroke="#b6aa05" d="M100.62,-160.5C100.62,-160.5 309.12,-160.5 309.12,-160.5 315.12,-160.5 321.12,-166.5 321.12,-172.5 321.12,-172.5 321.12,-271.5 321.12,-271.5 321.12,-277.5 315.12,-283.5 309.12,-283.5 309.12,-283.5 100.62,-283.5 100.62,-283.5 94.62,-283.5 88.62,-277.5 88.62,-271.5 88.62,-271.5 88.62,-172.5 88.62,-172.5 88.62,-166.5 94.62,-160.5 100.62,-160.5"/>
<text text-anchor="middle" x="204.88" y="-266.2" font-family="Times,serif" font-size="14.00" fill="#000000">*</text>
<text text-anchor="middle" x="204.88" y="-249.7" font-family="Times,serif" font-size="14.00" fill="#000000">0x107a00ad0</text>
<polyline fill="none" stroke="#b6aa05" points="88.62,-242.5 321.12,-242.5"/>
<text text-anchor="middle" x="204.88" y="-225.2" font-family="Times,serif" font-size="14.00" fill="#000000">TYPE: KEYWORD</text>
<polyline fill="none" stroke="#b6aa05" points="88.62,-218 321.12,-218"/>
<text text-anchor="middle" x="133.38" y="-200.7" font-family="Times,serif" font-size="14.00" fill="#000000">Left</text>
<text text-anchor="middle" x="133.38" y="-184.2" font-family="Times,serif" font-size="14.00" fill="#000000">5</text>
<text text-anchor="middle" x="133.38" y="-167.7" font-family="Times,serif" font-size="14.00" fill="#000000">0x107a00b50</text>
<polyline fill="none" stroke="#b6aa05" points="178.12,-160.5 178.12,-218"/>
<text text-anchor="middle" x="204.88" y="-200.7" font-family="Times,serif" font-size="14.00" fill="#000000">Parent</text>
<text text-anchor="middle" x="204.88" y="-184.2" font-family="Times,serif" font-size="14.00" fill="#000000">NONE</text>
<text text-anchor="middle" x="204.88" y="-167.7" font-family="Times,serif" font-size="14.00" fill="#000000">0x0</text>
<polyline fill="none" stroke="#b6aa05" points="231.62,-160.5 231.62,-218"/>
<text text-anchor="middle" x="276.38" y="-200.7" font-family="Times,serif" font-size="14.00" fill="#000000">Right</text>
<text text-anchor="middle" x="276.38" y="-184.2" font-family="Times,serif" font-size="14.00" fill="#000000">6</text>
<text text-anchor="middle" x="276.38" y="-167.7" font-family="Times,serif" font-size="14.00" fill="#000000">0x107a00b10</text>
</g>
<!-- node0x107a00b50 -->
<g id="node2" class="node">
<title>node0x107a00b50</title>
<path fill="#bdef9e" stroke="#74af80" d="M12,-0.5C12,-0.5 183.75,-0.5 183.75,-0.5 189.75,-0.5 195.75,-6.5 195.75,-12.5 195.75,-12.5 195.75,-111.5 195.75,-111.5 195.75,-117.5 189.75,-123.5 183.75,-123.5 183.75,-123.5 12,-123.5 12,-123.5 6,-123.5 0,-117.5 0,-111.5 0,-111.5 0,-12.5 0,-12.5 0,-6.5 6,-0.5 12,-0.5"/>
<text text-anchor="middle" x="97.88" y="-106.2" font-family="Times,serif" font-size="14.00" fill="#000000">5</text>
<text text-anchor="middle" x="97.88" y="-89.7" font-family="Times,serif" font-size="14.00" fill="#000000">0x107a00b50</text>
<polyline fill="none" stroke="#74af80" points="0,-82.5 195.75,-82.5"/>
<text text-anchor="middle" x="97.88" y="-65.2" font-family="Times,serif" font-size="14.00" fill="#000000">TYPE: NUMBER</text>
<polyline fill="none" stroke="#74af80" points="0,-58 195.75,-58"/>
<text text-anchor="middle" x="26.75" y="-40.7" font-family="Times,serif" font-size="14.00" fill="#000000">Left</text>
<text text-anchor="middle" x="26.75" y="-24.2" font-family="Times,serif" font-size="14.00" fill="#000000">NONE</text>
<text text-anchor="middle" x="26.75" y="-7.7" font-family="Times,serif" font-size="14.00" fill="#000000">0x0</text>
<polyline fill="none" stroke="#74af80" points="53.5,-0.5 53.5,-58"/>
<text text-anchor="middle" x="97.88" y="-40.7" font-family="Times,serif" font-size="14.00" fill="#000000">Parent</text>
<text text-anchor="middle" x="97.88" y="-24.2" font-family="Times,serif" font-size="14.00" fill="#000000">*</text>
<text text-anchor="middle" x="97.88" y="-7.7" font-family="Times,serif" font-size="14.00" fill="#000000">0x107a00ad0</text>
<polyline fill="none" stroke="#74af80" points="142.25,-0.5 142.25,-58"/>
<text text-anchor="middle" x="169" y="-40.7" font-family="Times,serif" font-size="14.00" fill="#000000">Right</text>
<text text-anchor="middle" x="169" y="-24.2" font-family="Times,serif" font-size="14.00" fill="#000000">NONE</text>
<text text-anchor="middle" x="169" y="-7.7" font-family="Times,serif" font-size="14.00" fill="#000000">0x0</text>
</g>
<!-- node0x107a00ad0&#45;&gt;node0x107a00b50 -->
<g id="edge1" class="edge">
<title>node0x107a00ad0:left&#45;&gt;node0x107a00b50</title>
<path fill="none" stroke="#187ae8" stroke-width="2" d="M133.38,-160C133.38,-151.65 132.2,-143.12 130.28,-134.76"/>
<polygon fill="#187ae8" stroke="#187ae8" stroke-width="2" points="134.12,-135.57 128.14,-126.82 127.36,-137.39 134.12,-135.57"/>
</g>
<!-- node0x107a00b10 -->
<g id="node3" class="node">
<title>node0x107a00b10</title>
<path fill="#bdef9e" stroke="#74af80" d="M226,-0.5C226,-0.5 397.75,-0.5 397.75,-0.5 403.75,-0.5 409.75,-6.5 409.75,-12.5 409.75,-12.5 409.75,-111.5 409.75,-111.5 409.75,-117.5 403.75,-123.5 397.75,-123.5 397.75,-123.5 226,-123.5 226,-123.5 220,-123.5 214,-117.5 214,-111.5 214,-111.5 214,-12.5 214,-12.5 214,-6.5 220,-0.5 226,-0.5"/>
<text text-anchor="middle" x="311.88" y="-106.2" font-family="Times,serif" font-size="14.00" fill="#000000">6</text>
<text text-anchor="middle" x="311.88" y="-89.7" font-family="Times,serif" font-size="14.00" fill="#000000">0x107a00b10</text>
<polyline fill="none" stroke="#74af80" points="214,-82.5 409.75,-82.5"/>
<text text-anchor="middle" x="311.88" y="-65.2" font-family="Times,serif" font-size="14.00" fill="#000000">TYPE: NUMBER</text>
<polyline fill="none" stroke="#74af80" points="214,-58 409.75,-58"/>
<text text-anchor="middle" x="240.75" y="-40.7" font-family="Times,serif" font-size="14.00" fill="#000000">Left</text>
<text text-anchor="middle" x="240.75" y="-24.2" font-family="Times,serif" font-size="14.00" fill="#000000">NONE</text>
<text text-anchor="middle" x="240.75" y="-7.7" font-family="Times,serif" font-size="14.00" fill="#000000">0x0</text>
<polyline fill="none" stroke="#74af80" points="267.5,-0.5 267.5,-58"/>
<text text-anchor="middle" x="311.88" y="-40.7" font-family="Times,serif" font-size="14.00" fill="#000000">Parent</text>
<text text-anchor="middle" x="311.88" y="-24.2" font-family="Times,serif" font-size="14.00" fill="#000000">*</text>
<text text-anchor="middle" x="311.88" y="-7.7" font-family="Times,serif" font-size="14.00" fill="#000000">0x107a00ad0</text>
<polyline fill="none" stroke="#74af80" points="356.25,-0.5 356.25,-58"/>
<text text-anchor="middle" x="383" y="-40.7" font-family="Times,serif" font-size="14.00" fill="#000000">Right</text>
<text text-anchor="middle" x="383" y="-24.2" font-family="Times,serif" font-size="14.00" fill="#000000">NONE</text>
<text text-anchor="middle" x="383" y="-7.7" font-family="Times,serif" font-size="14.00" fill="#000000">0x0</text>
</g>
<!-- node0x107a00ad0&#45;&gt;node0x107a00b10 -->
<g id="edge2" class="edge">
<title>node0x107a00ad0:right&#45;&gt;node0x107a00b10</title>
<path fill="none" stroke="#48e818" stroke-width="2" d="M276.38,-160C276.38,-151.65 277.55,-143.12 279.47,-134.76"/>
<polygon fill="#48e818" stroke="#48e818" stroke-width="2" points="282.39,-137.39 281.61,-126.82 275.63,-135.57 282.39,-137.39"/>
</g>
</g>
</svg>
