<?xml version="1.0" encoding="UTF-8" standalone="no"?>
<!DOCTYPE svg PUBLIC "-//W3C//DTD SVG 1.1//EN"
 "http://www.w3.org/Graphics/SVG/1.1/DTD/svg11.dtd">
<!-- Generated by graphviz version 12.2.0 (20241103.1931)
 -->
<!-- Pages: 1 -->
<svg width="1140pt" height="1252pt"
 viewBox="0.00 0.00 1140.25 1252.00" xmlns="http://www.w3.org/2000/svg" xmlns:xlink="http://www.w3.org/1999/xlink">
<g id="graph0" class="graph" transform="scale(1 1) rotate(0) translate(4 1248)">
<polygon fill="#dcdcdc" stroke="none" points="-4,4 -4,-1248 1136.25,-1248 1136.25,4 -4,4"/>
<!-- node0x103700b50 -->
<g id="node1" class="node">
<title>node0x103700b50</title>
<path fill="#f8e807" stroke="#b6aa05" d="M198,-1120.5C198,-1120.5 371.25,-1120.5 371.25,-1120.5 377.25,-1120.5 383.25,-1126.5 383.25,-1132.5 383.25,-1132.5 383.25,-1231.5 383.25,-1231.5 383.25,-1237.5 377.25,-1243.5 371.25,-1243.5 371.25,-1243.5 198,-1243.5 198,-1243.5 192,-1243.5 186,-1237.5 186,-1231.5 186,-1231.5 186,-1132.5 186,-1132.5 186,-1126.5 192,-1120.5 198,-1120.5"/>
<text text-anchor="middle" x="284.62" y="-1226.2" font-family="Times,serif" font-size="14.00" fill="#000000">;</text>
<text text-anchor="middle" x="284.62" y="-1209.7" font-family="Times,serif" font-size="14.00" fill="#000000">0x103700b50</text>
<polyline fill="none" stroke="#b6aa05" points="186,-1202.5 383.25,-1202.5"/>
<text text-anchor="middle" x="284.62" y="-1185.2" font-family="Times,serif" font-size="14.00" fill="#000000">TYPE: KEYWORD</text>
<polyline fill="none" stroke="#b6aa05" points="186,-1178 383.25,-1178"/>
<text text-anchor="middle" x="231.12" y="-1160.7" font-family="Times,serif" font-size="14.00" fill="#000000">Left</text>
<text text-anchor="middle" x="231.12" y="-1144.2" font-family="Times,serif" font-size="14.00" fill="#000000">main</text>
<text text-anchor="middle" x="231.12" y="-1127.7" font-family="Times,serif" font-size="14.00" fill="#000000">0x103700b10</text>
<polyline fill="none" stroke="#b6aa05" points="276.25,-1120.5 276.25,-1178"/>
<text text-anchor="middle" x="303" y="-1160.7" font-family="Times,serif" font-size="14.00" fill="#000000">Parent</text>
<text text-anchor="middle" x="303" y="-1144.2" font-family="Times,serif" font-size="14.00" fill="#000000">NONE</text>
<text text-anchor="middle" x="303" y="-1127.7" font-family="Times,serif" font-size="14.00" fill="#000000">0x0</text>
<polyline fill="none" stroke="#b6aa05" points="329.75,-1120.5 329.75,-1178"/>
<text text-anchor="middle" x="356.5" y="-1160.7" font-family="Times,serif" font-size="14.00" fill="#000000">Right</text>
<text text-anchor="middle" x="356.5" y="-1144.2" font-family="Times,serif" font-size="14.00" fill="#000000">NONE</text>
<text text-anchor="middle" x="356.5" y="-1127.7" font-family="Times,serif" font-size="14.00" fill="#000000">0x0</text>
</g>
<!-- node0x103700b10 -->
<g id="node2" class="node">
<title>node0x103700b10</title>
<path fill="#8ee3ef" stroke="#37718e" d="M100.75,-960.5C100.75,-960.5 362.5,-960.5 362.5,-960.5 368.5,-960.5 374.5,-966.5 374.5,-972.5 374.5,-972.5 374.5,-1071.5 374.5,-1071.5 374.5,-1077.5 368.5,-1083.5 362.5,-1083.5 362.5,-1083.5 100.75,-1083.5 100.75,-1083.5 94.75,-1083.5 88.75,-1077.5 88.75,-1071.5 88.75,-1071.5 88.75,-972.5 88.75,-972.5 88.75,-966.5 94.75,-960.5 100.75,-960.5"/>
<text text-anchor="middle" x="231.62" y="-1066.2" font-family="Times,serif" font-size="14.00" fill="#000000">main</text>
<text text-anchor="middle" x="231.62" y="-1049.7" font-family="Times,serif" font-size="14.00" fill="#000000">0x103700b10</text>
<polyline fill="none" stroke="#37718e" points="88.75,-1042.5 374.5,-1042.5"/>
<text text-anchor="middle" x="231.62" y="-1025.2" font-family="Times,serif" font-size="14.00" fill="#000000">TYPE: FUNCTION_DEFINITION</text>
<polyline fill="none" stroke="#37718e" points="88.75,-1018 374.5,-1018"/>
<text text-anchor="middle" x="133.5" y="-1000.7" font-family="Times,serif" font-size="14.00" fill="#000000">Left</text>
<text text-anchor="middle" x="133.5" y="-984.2" font-family="Times,serif" font-size="14.00" fill="#000000">double</text>
<text text-anchor="middle" x="133.5" y="-967.7" font-family="Times,serif" font-size="14.00" fill="#000000">0x103700ad0</text>
<polyline fill="none" stroke="#37718e" points="178.25,-960.5 178.25,-1018"/>
<text text-anchor="middle" x="223.38" y="-1000.7" font-family="Times,serif" font-size="14.00" fill="#000000">Parent</text>
<text text-anchor="middle" x="223.38" y="-984.2" font-family="Times,serif" font-size="14.00" fill="#000000">;</text>
<text text-anchor="middle" x="223.38" y="-967.7" font-family="Times,serif" font-size="14.00" fill="#000000">0x103700b50</text>
<polyline fill="none" stroke="#37718e" points="268.5,-960.5 268.5,-1018"/>
<text text-anchor="middle" x="321.5" y="-1000.7" font-family="Times,serif" font-size="14.00" fill="#000000">Right</text>
<text text-anchor="middle" x="321.5" y="-984.2" font-family="Times,serif" font-size="14.00" fill="#000000">PARAMETERS</text>
<text text-anchor="middle" x="321.5" y="-967.7" font-family="Times,serif" font-size="14.00" fill="#000000">0x103700a90</text>
</g>
<!-- node0x103700b50&#45;&gt;node0x103700b10 -->
<g id="edge1" class="edge">
<title>node0x103700b50:left&#45;&gt;node0x103700b10</title>
<path fill="none" stroke="#187ae8" stroke-width="2" d="M231.12,-1120C231.12,-1111.95 231.14,-1103.53 231.17,-1095.15"/>
<polygon fill="#187ae8" stroke="#187ae8" stroke-width="2" points="234.66,-1096.84 231.2,-1086.83 227.66,-1096.81 234.66,-1096.84"/>
</g>
<!-- node0x103700ad0 -->
<g id="node3" class="node">
<title>node0x103700ad0</title>
<path fill="#f8e807" stroke="#b6aa05" d="M15,-800.5C15,-800.5 188.25,-800.5 188.25,-800.5 194.25,-800.5 200.25,-806.5 200.25,-812.5 200.25,-812.5 200.25,-911.5 200.25,-911.5 200.25,-917.5 194.25,-923.5 188.25,-923.5 188.25,-923.5 15,-923.5 15,-923.5 9,-923.5 3,-917.5 3,-911.5 3,-911.5 3,-812.5 3,-812.5 3,-806.5 9,-800.5 15,-800.5"/>
<text text-anchor="middle" x="101.62" y="-906.2" font-family="Times,serif" font-size="14.00" fill="#000000">double</text>
<text text-anchor="middle" x="101.62" y="-889.7" font-family="Times,serif" font-size="14.00" fill="#000000">0x103700ad0</text>
<polyline fill="none" stroke="#b6aa05" points="3,-882.5 200.25,-882.5"/>
<text text-anchor="middle" x="101.62" y="-865.2" font-family="Times,serif" font-size="14.00" fill="#000000">TYPE: KEYWORD</text>
<polyline fill="none" stroke="#b6aa05" points="3,-858 200.25,-858"/>
<text text-anchor="middle" x="29.75" y="-840.7" font-family="Times,serif" font-size="14.00" fill="#000000">Left</text>
<text text-anchor="middle" x="29.75" y="-824.2" font-family="Times,serif" font-size="14.00" fill="#000000">NONE</text>
<text text-anchor="middle" x="29.75" y="-807.7" font-family="Times,serif" font-size="14.00" fill="#000000">0x0</text>
<polyline fill="none" stroke="#b6aa05" points="56.5,-800.5 56.5,-858"/>
<text text-anchor="middle" x="101.62" y="-840.7" font-family="Times,serif" font-size="14.00" fill="#000000">Parent</text>
<text text-anchor="middle" x="101.62" y="-824.2" font-family="Times,serif" font-size="14.00" fill="#000000">main</text>
<text text-anchor="middle" x="101.62" y="-807.7" font-family="Times,serif" font-size="14.00" fill="#000000">0x103700b10</text>
<polyline fill="none" stroke="#b6aa05" points="146.75,-800.5 146.75,-858"/>
<text text-anchor="middle" x="173.5" y="-840.7" font-family="Times,serif" font-size="14.00" fill="#000000">Right</text>
<text text-anchor="middle" x="173.5" y="-824.2" font-family="Times,serif" font-size="14.00" fill="#000000">NONE</text>
<text text-anchor="middle" x="173.5" y="-807.7" font-family="Times,serif" font-size="14.00" fill="#000000">0x0</text>
</g>
<!-- node0x103700b10&#45;&gt;node0x103700ad0 -->
<g id="edge2" class="edge">
<title>node0x103700b10:left&#45;&gt;node0x103700ad0</title>
<path fill="none" stroke="#187ae8" stroke-width="2" d="M133.5,-960C133.5,-951.77 132.45,-943.34 130.74,-935.05"/>
<polygon fill="#187ae8" stroke="#187ae8" stroke-width="2" points="134.5,-935.7 128.73,-926.8 127.69,-937.35 134.5,-935.7"/>
</g>
<!-- node0x103700a90 -->
<g id="node4" class="node">
<title>node0x103700a90</title>
<path fill="#ebcbf4" stroke="#c986c3" d="M230,-800.5C230,-800.5 475.25,-800.5 475.25,-800.5 481.25,-800.5 487.25,-806.5 487.25,-812.5 487.25,-812.5 487.25,-911.5 487.25,-911.5 487.25,-917.5 481.25,-923.5 475.25,-923.5 475.25,-923.5 230,-923.5 230,-923.5 224,-923.5 218,-917.5 218,-911.5 218,-911.5 218,-812.5 218,-812.5 218,-806.5 224,-800.5 230,-800.5"/>
<text text-anchor="middle" x="352.62" y="-906.2" font-family="Times,serif" font-size="14.00" fill="#000000">PARAMETERS</text>
<text text-anchor="middle" x="352.62" y="-889.7" font-family="Times,serif" font-size="14.00" fill="#000000">0x103700a90</text>
<polyline fill="none" stroke="#c986c3" points="218,-882.5 487.25,-882.5"/>
<text text-anchor="middle" x="352.62" y="-865.2" font-family="Times,serif" font-size="14.00" fill="#000000">TYPE: PARAMETERS</text>
<polyline fill="none" stroke="#c986c3" points="218,-858 487.25,-858"/>
<text text-anchor="middle" x="262.75" y="-840.7" font-family="Times,serif" font-size="14.00" fill="#000000">Left</text>
<text text-anchor="middle" x="262.75" y="-824.2" font-family="Times,serif" font-size="14.00" fill="#000000">,</text>
<text text-anchor="middle" x="262.75" y="-807.7" font-family="Times,serif" font-size="14.00" fill="#000000">0x103700a50</text>
<polyline fill="none" stroke="#c986c3" points="307.5,-800.5 307.5,-858"/>
<text text-anchor="middle" x="352.62" y="-840.7" font-family="Times,serif" font-size="14.00" fill="#000000">Parent</text>
<text text-anchor="middle" x="352.62" y="-824.2" font-family="Times,serif" font-size="14.00" fill="#000000">main</text>
<text text-anchor="middle" x="352.62" y="-807.7" font-family="Times,serif" font-size="14.00" fill="#000000">0x103700b10</text>
<polyline fill="none" stroke="#c986c3" points="397.75,-800.5 397.75,-858"/>
<text text-anchor="middle" x="442.5" y="-840.7" font-family="Times,serif" font-size="14.00" fill="#000000">Right</text>
<text text-anchor="middle" x="442.5" y="-824.2" font-family="Times,serif" font-size="14.00" fill="#000000">;</text>
<text text-anchor="middle" x="442.5" y="-807.7" font-family="Times,serif" font-size="14.00" fill="#000000">0x103700a10</text>
</g>
<!-- node0x103700b10&#45;&gt;node0x103700a90 -->
<g id="edge18" class="edge">
<title>node0x103700b10:right&#45;&gt;node0x103700a90</title>
<path fill="none" stroke="#48e818" stroke-width="2" d="M321.5,-960C321.5,-951.79 322.52,-943.37 324.2,-935.09"/>
<polygon fill="#48e818" stroke="#48e818" stroke-width="2" points="327.25,-937.39 326.15,-926.85 320.44,-935.77 327.25,-937.39"/>
</g>
<!-- node0x103700a50 -->
<g id="node5" class="node">
<title>node0x103700a50</title>
<path fill="#f8e807" stroke="#b6aa05" d="M124.12,-640.5C124.12,-640.5 313.12,-640.5 313.12,-640.5 319.12,-640.5 325.12,-646.5 325.12,-652.5 325.12,-652.5 325.12,-751.5 325.12,-751.5 325.12,-757.5 319.12,-763.5 313.12,-763.5 313.12,-763.5 124.13,-763.5 124.13,-763.5 118.12,-763.5 112.12,-757.5 112.12,-751.5 112.12,-751.5 112.12,-652.5 112.12,-652.5 112.12,-646.5 118.12,-640.5 124.12,-640.5"/>
<text text-anchor="middle" x="218.62" y="-746.2" font-family="Times,serif" font-size="14.00" fill="#000000">,</text>
<text text-anchor="middle" x="218.62" y="-729.7" font-family="Times,serif" font-size="14.00" fill="#000000">0x103700a50</text>
<polyline fill="none" stroke="#b6aa05" points="112.12,-722.5 325.12,-722.5"/>
<text text-anchor="middle" x="218.62" y="-705.2" font-family="Times,serif" font-size="14.00" fill="#000000">TYPE: KEYWORD</text>
<polyline fill="none" stroke="#b6aa05" points="112.12,-698 325.12,-698"/>
<text text-anchor="middle" x="138.88" y="-680.7" font-family="Times,serif" font-size="14.00" fill="#000000">Left</text>
<text text-anchor="middle" x="138.88" y="-664.2" font-family="Times,serif" font-size="14.00" fill="#000000">NONE</text>
<text text-anchor="middle" x="138.88" y="-647.7" font-family="Times,serif" font-size="14.00" fill="#000000">0x0</text>
<polyline fill="none" stroke="#b6aa05" points="165.62,-640.5 165.62,-698"/>
<text text-anchor="middle" x="218.62" y="-680.7" font-family="Times,serif" font-size="14.00" fill="#000000">Parent</text>
<text text-anchor="middle" x="218.62" y="-664.2" font-family="Times,serif" font-size="14.00" fill="#000000">PARAMETERS</text>
<text text-anchor="middle" x="218.62" y="-647.7" font-family="Times,serif" font-size="14.00" fill="#000000">0x103700a90</text>
<polyline fill="none" stroke="#b6aa05" points="271.62,-640.5 271.62,-698"/>
<text text-anchor="middle" x="298.38" y="-680.7" font-family="Times,serif" font-size="14.00" fill="#000000">Right</text>
<text text-anchor="middle" x="298.38" y="-664.2" font-family="Times,serif" font-size="14.00" fill="#000000">NONE</text>
<text text-anchor="middle" x="298.38" y="-647.7" font-family="Times,serif" font-size="14.00" fill="#000000">0x0</text>
</g>
<!-- node0x103700a90&#45;&gt;node0x103700a50 -->
<g id="edge3" class="edge">
<title>node0x103700a90:left&#45;&gt;node0x103700a50</title>
<path fill="none" stroke="#187ae8" stroke-width="2" d="M262.75,-800C262.75,-791.51 261.33,-782.95 259,-774.61"/>
<polygon fill="#187ae8" stroke="#187ae8" stroke-width="2" points="262.85,-775.09 256.41,-766.68 256.19,-777.27 262.85,-775.09"/>
</g>
<!-- node0x103700a10 -->
<g id="node6" class="node">
<title>node0x103700a10</title>
<path fill="#f8e807" stroke="#b6aa05" d="M355.38,-640.5C355.38,-640.5 617.88,-640.5 617.88,-640.5 623.88,-640.5 629.88,-646.5 629.88,-652.5 629.88,-652.5 629.88,-751.5 629.88,-751.5 629.88,-757.5 623.88,-763.5 617.88,-763.5 617.88,-763.5 355.38,-763.5 355.38,-763.5 349.38,-763.5 343.38,-757.5 343.38,-751.5 343.38,-751.5 343.38,-652.5 343.38,-652.5 343.38,-646.5 349.38,-640.5 355.38,-640.5"/>
<text text-anchor="middle" x="486.62" y="-746.2" font-family="Times,serif" font-size="14.00" fill="#000000">;</text>
<text text-anchor="middle" x="486.62" y="-729.7" font-family="Times,serif" font-size="14.00" fill="#000000">0x103700a10</text>
<polyline fill="none" stroke="#b6aa05" points="343.38,-722.5 629.88,-722.5"/>
<text text-anchor="middle" x="486.62" y="-705.2" font-family="Times,serif" font-size="14.00" fill="#000000">TYPE: KEYWORD</text>
<polyline fill="none" stroke="#b6aa05" points="343.38,-698 629.88,-698"/>
<text text-anchor="middle" x="388.5" y="-680.7" font-family="Times,serif" font-size="14.00" fill="#000000">Left</text>
<text text-anchor="middle" x="388.5" y="-664.2" font-family="Times,serif" font-size="14.00" fill="#000000">a</text>
<text text-anchor="middle" x="388.5" y="-647.7" font-family="Times,serif" font-size="14.00" fill="#000000">0x1037009d0</text>
<polyline fill="none" stroke="#b6aa05" points="433.62,-640.5 433.62,-698"/>
<text text-anchor="middle" x="486.62" y="-680.7" font-family="Times,serif" font-size="14.00" fill="#000000">Parent</text>
<text text-anchor="middle" x="486.62" y="-664.2" font-family="Times,serif" font-size="14.00" fill="#000000">PARAMETERS</text>
<text text-anchor="middle" x="486.62" y="-647.7" font-family="Times,serif" font-size="14.00" fill="#000000">0x103700a90</text>
<polyline fill="none" stroke="#b6aa05" points="539.62,-640.5 539.62,-698"/>
<text text-anchor="middle" x="584.75" y="-680.7" font-family="Times,serif" font-size="14.00" fill="#000000">Right</text>
<text text-anchor="middle" x="584.75" y="-664.2" font-family="Times,serif" font-size="14.00" fill="#000000">;</text>
<text text-anchor="middle" x="584.75" y="-647.7" font-family="Times,serif" font-size="14.00" fill="#000000">0x103700890</text>
</g>
<!-- node0x103700a90&#45;&gt;node0x103700a10 -->
<g id="edge17" class="edge">
<title>node0x103700a90:right&#45;&gt;node0x103700a10</title>
<path fill="none" stroke="#48e818" stroke-width="2" d="M442.5,-800C442.5,-791.51 443.92,-782.95 446.25,-774.61"/>
<polygon fill="#48e818" stroke="#48e818" stroke-width="2" points="449.06,-777.27 448.84,-766.68 442.4,-775.09 449.06,-777.27"/>
</g>
<!-- node0x1037009d0 -->
<g id="node7" class="node">
<title>node0x1037009d0</title>
<path fill="#f34f5d" stroke="#bd132f" d="M138.62,-480.5C138.62,-480.5 384.62,-480.5 384.62,-480.5 390.62,-480.5 396.62,-486.5 396.62,-492.5 396.62,-492.5 396.62,-591.5 396.62,-591.5 396.62,-597.5 390.62,-603.5 384.62,-603.5 384.62,-603.5 138.62,-603.5 138.62,-603.5 132.62,-603.5 126.62,-597.5 126.62,-591.5 126.62,-591.5 126.62,-492.5 126.62,-492.5 126.62,-486.5 132.62,-480.5 138.62,-480.5"/>
<text text-anchor="middle" x="261.62" y="-586.2" font-family="Times,serif" font-size="14.00" fill="#000000">a</text>
<text text-anchor="middle" x="261.62" y="-569.7" font-family="Times,serif" font-size="14.00" fill="#000000">0x1037009d0</text>
<polyline fill="none" stroke="#bd132f" points="126.62,-562.5 396.62,-562.5"/>
<text text-anchor="middle" x="261.62" y="-545.2" font-family="Times,serif" font-size="14.00" fill="#000000">TYPE: VAR_DECLARATION</text>
<polyline fill="none" stroke="#bd132f" points="126.62,-538 396.62,-538"/>
<text text-anchor="middle" x="171.75" y="-520.7" font-family="Times,serif" font-size="14.00" fill="#000000">Left</text>
<text text-anchor="middle" x="171.75" y="-504.2" font-family="Times,serif" font-size="14.00" fill="#000000">double</text>
<text text-anchor="middle" x="171.75" y="-487.7" font-family="Times,serif" font-size="14.00" fill="#000000">0x103700990</text>
<polyline fill="none" stroke="#bd132f" points="216.88,-480.5 216.88,-538"/>
<text text-anchor="middle" x="261.62" y="-520.7" font-family="Times,serif" font-size="14.00" fill="#000000">Parent</text>
<text text-anchor="middle" x="261.62" y="-504.2" font-family="Times,serif" font-size="14.00" fill="#000000">;</text>
<text text-anchor="middle" x="261.62" y="-487.7" font-family="Times,serif" font-size="14.00" fill="#000000">0x103700a10</text>
<polyline fill="none" stroke="#bd132f" points="306.38,-480.5 306.38,-538"/>
<text text-anchor="middle" x="351.5" y="-520.7" font-family="Times,serif" font-size="14.00" fill="#000000">Right</text>
<text text-anchor="middle" x="351.5" y="-504.2" font-family="Times,serif" font-size="14.00" fill="#000000">=</text>
<text text-anchor="middle" x="351.5" y="-487.7" font-family="Times,serif" font-size="14.00" fill="#000000">0x103700950</text>
</g>
<!-- node0x103700a10&#45;&gt;node0x1037009d0 -->
<g id="edge4" class="edge">
<title>node0x103700a10:left&#45;&gt;node0x1037009d0</title>
<path fill="none" stroke="#187ae8" stroke-width="2" d="M342.38,-669.25C328.93,-669.25 340.5,-652.1 334.62,-640 330.23,-630.95 324.94,-621.9 319.23,-613.17"/>
<polygon fill="#187ae8" stroke="#187ae8" stroke-width="2" points="323.11,-612.65 314.6,-606.34 317.32,-616.58 323.11,-612.65"/>
</g>
<!-- node0x103700890 -->
<g id="node12" class="node">
<title>node0x103700890</title>
<path fill="#f8e807" stroke="#b6aa05" d="M587.62,-480.5C587.62,-480.5 833.62,-480.5 833.62,-480.5 839.62,-480.5 845.62,-486.5 845.62,-492.5 845.62,-492.5 845.62,-591.5 845.62,-591.5 845.62,-597.5 839.62,-603.5 833.62,-603.5 833.62,-603.5 587.62,-603.5 587.62,-603.5 581.62,-603.5 575.62,-597.5 575.62,-591.5 575.62,-591.5 575.62,-492.5 575.62,-492.5 575.62,-486.5 581.62,-480.5 587.62,-480.5"/>
<text text-anchor="middle" x="710.62" y="-586.2" font-family="Times,serif" font-size="14.00" fill="#000000">;</text>
<text text-anchor="middle" x="710.62" y="-569.7" font-family="Times,serif" font-size="14.00" fill="#000000">0x103700890</text>
<polyline fill="none" stroke="#b6aa05" points="575.62,-562.5 845.62,-562.5"/>
<text text-anchor="middle" x="710.62" y="-545.2" font-family="Times,serif" font-size="14.00" fill="#000000">TYPE: KEYWORD</text>
<polyline fill="none" stroke="#b6aa05" points="575.62,-538 845.62,-538"/>
<text text-anchor="middle" x="620.75" y="-520.7" font-family="Times,serif" font-size="14.00" fill="#000000">Left</text>
<text text-anchor="middle" x="620.75" y="-504.2" font-family="Times,serif" font-size="14.00" fill="#000000">printf</text>
<text text-anchor="middle" x="620.75" y="-487.7" font-family="Times,serif" font-size="14.00" fill="#000000">0x103700850</text>
<polyline fill="none" stroke="#b6aa05" points="665.88,-480.5 665.88,-538"/>
<text text-anchor="middle" x="710.62" y="-520.7" font-family="Times,serif" font-size="14.00" fill="#000000">Parent</text>
<text text-anchor="middle" x="710.62" y="-504.2" font-family="Times,serif" font-size="14.00" fill="#000000">;</text>
<text text-anchor="middle" x="710.62" y="-487.7" font-family="Times,serif" font-size="14.00" fill="#000000">0x103700a10</text>
<polyline fill="none" stroke="#b6aa05" points="755.38,-480.5 755.38,-538"/>
<text text-anchor="middle" x="800.5" y="-520.7" font-family="Times,serif" font-size="14.00" fill="#000000">Right</text>
<text text-anchor="middle" x="800.5" y="-504.2" font-family="Times,serif" font-size="14.00" fill="#000000">;</text>
<text text-anchor="middle" x="800.5" y="-487.7" font-family="Times,serif" font-size="14.00" fill="#000000">0x103700750</text>
</g>
<!-- node0x103700a10&#45;&gt;node0x103700890 -->
<g id="edge16" class="edge">
<title>node0x103700a10:right&#45;&gt;node0x103700890</title>
<path fill="none" stroke="#48e818" stroke-width="2" d="M630.88,-669.25C661.12,-669.25 680.36,-643.03 692.35,-614.48"/>
<polygon fill="#48e818" stroke="#48e818" stroke-width="2" points="695,-617.32 695.35,-606.73 688.48,-614.79 695,-617.32"/>
</g>
<!-- node0x103700990 -->
<g id="node8" class="node">
<title>node0x103700990</title>
<path fill="#f8e807" stroke="#b6aa05" d="M12,-320.5C12,-320.5 185.25,-320.5 185.25,-320.5 191.25,-320.5 197.25,-326.5 197.25,-332.5 197.25,-332.5 197.25,-431.5 197.25,-431.5 197.25,-437.5 191.25,-443.5 185.25,-443.5 185.25,-443.5 12,-443.5 12,-443.5 6,-443.5 0,-437.5 0,-431.5 0,-431.5 0,-332.5 0,-332.5 0,-326.5 6,-320.5 12,-320.5"/>
<text text-anchor="middle" x="98.62" y="-426.2" font-family="Times,serif" font-size="14.00" fill="#000000">double</text>
<text text-anchor="middle" x="98.62" y="-409.7" font-family="Times,serif" font-size="14.00" fill="#000000">0x103700990</text>
<polyline fill="none" stroke="#b6aa05" points="0,-402.5 197.25,-402.5"/>
<text text-anchor="middle" x="98.62" y="-385.2" font-family="Times,serif" font-size="14.00" fill="#000000">TYPE: KEYWORD</text>
<polyline fill="none" stroke="#b6aa05" points="0,-378 197.25,-378"/>
<text text-anchor="middle" x="26.75" y="-360.7" font-family="Times,serif" font-size="14.00" fill="#000000">Left</text>
<text text-anchor="middle" x="26.75" y="-344.2" font-family="Times,serif" font-size="14.00" fill="#000000">NONE</text>
<text text-anchor="middle" x="26.75" y="-327.7" font-family="Times,serif" font-size="14.00" fill="#000000">0x0</text>
<polyline fill="none" stroke="#b6aa05" points="53.5,-320.5 53.5,-378"/>
<text text-anchor="middle" x="98.62" y="-360.7" font-family="Times,serif" font-size="14.00" fill="#000000">Parent</text>
<text text-anchor="middle" x="98.62" y="-344.2" font-family="Times,serif" font-size="14.00" fill="#000000">a</text>
<text text-anchor="middle" x="98.62" y="-327.7" font-family="Times,serif" font-size="14.00" fill="#000000">0x1037009d0</text>
<polyline fill="none" stroke="#b6aa05" points="143.75,-320.5 143.75,-378"/>
<text text-anchor="middle" x="170.5" y="-360.7" font-family="Times,serif" font-size="14.00" fill="#000000">Right</text>
<text text-anchor="middle" x="170.5" y="-344.2" font-family="Times,serif" font-size="14.00" fill="#000000">NONE</text>
<text text-anchor="middle" x="170.5" y="-327.7" font-family="Times,serif" font-size="14.00" fill="#000000">0x0</text>
</g>
<!-- node0x1037009d0&#45;&gt;node0x103700990 -->
<g id="edge5" class="edge">
<title>node0x1037009d0:left&#45;&gt;node0x103700990</title>
<path fill="none" stroke="#187ae8" stroke-width="2" d="M171.75,-480C171.75,-471.03 169.73,-462.36 166.36,-454.14"/>
<polygon fill="#187ae8" stroke="#187ae8" stroke-width="2" points="170.27,-454.17 162.75,-446.71 163.97,-457.23 170.27,-454.17"/>
</g>
<!-- node0x103700950 -->
<g id="node9" class="node">
<title>node0x103700950</title>
<path fill="#f8e807" stroke="#b6aa05" d="M227.25,-320.5C227.25,-320.5 474,-320.5 474,-320.5 480,-320.5 486,-326.5 486,-332.5 486,-332.5 486,-431.5 486,-431.5 486,-437.5 480,-443.5 474,-443.5 474,-443.5 227.25,-443.5 227.25,-443.5 221.25,-443.5 215.25,-437.5 215.25,-431.5 215.25,-431.5 215.25,-332.5 215.25,-332.5 215.25,-326.5 221.25,-320.5 227.25,-320.5"/>
<text text-anchor="middle" x="350.62" y="-426.2" font-family="Times,serif" font-size="14.00" fill="#000000">=</text>
<text text-anchor="middle" x="350.62" y="-409.7" font-family="Times,serif" font-size="14.00" fill="#000000">0x103700950</text>
<polyline fill="none" stroke="#b6aa05" points="215.25,-402.5 486,-402.5"/>
<text text-anchor="middle" x="350.62" y="-385.2" font-family="Times,serif" font-size="14.00" fill="#000000">TYPE: KEYWORD</text>
<polyline fill="none" stroke="#b6aa05" points="215.25,-378 486,-378"/>
<text text-anchor="middle" x="260.38" y="-360.7" font-family="Times,serif" font-size="14.00" fill="#000000">Left</text>
<text text-anchor="middle" x="260.38" y="-344.2" font-family="Times,serif" font-size="14.00" fill="#000000">input</text>
<text text-anchor="middle" x="260.38" y="-327.7" font-family="Times,serif" font-size="14.00" fill="#000000">0x103700910</text>
<polyline fill="none" stroke="#b6aa05" points="305.5,-320.5 305.5,-378"/>
<text text-anchor="middle" x="350.62" y="-360.7" font-family="Times,serif" font-size="14.00" fill="#000000">Parent</text>
<text text-anchor="middle" x="350.62" y="-344.2" font-family="Times,serif" font-size="14.00" fill="#000000">a</text>
<text text-anchor="middle" x="350.62" y="-327.7" font-family="Times,serif" font-size="14.00" fill="#000000">0x1037009d0</text>
<polyline fill="none" stroke="#b6aa05" points="395.75,-320.5 395.75,-378"/>
<text text-anchor="middle" x="440.88" y="-360.7" font-family="Times,serif" font-size="14.00" fill="#000000">Right</text>
<text text-anchor="middle" x="440.88" y="-344.2" font-family="Times,serif" font-size="14.00" fill="#000000">a</text>
<text text-anchor="middle" x="440.88" y="-327.7" font-family="Times,serif" font-size="14.00" fill="#000000">0x1037008d0</text>
</g>
<!-- node0x1037009d0&#45;&gt;node0x103700950 -->
<g id="edge8" class="edge">
<title>node0x1037009d0:right&#45;&gt;node0x103700950</title>
<path fill="none" stroke="#48e818" stroke-width="2" d="M351.5,-480C351.5,-471.95 351.47,-463.53 351.42,-455.15"/>
<polygon fill="#48e818" stroke="#48e818" stroke-width="2" points="354.93,-456.8 351.36,-446.83 347.93,-456.85 354.93,-456.8"/>
</g>
<!-- node0x103700910 -->
<g id="node10" class="node">
<title>node0x103700910</title>
<path fill="#f8e807" stroke="#b6aa05" d="M139,-160.5C139,-160.5 312.25,-160.5 312.25,-160.5 318.25,-160.5 324.25,-166.5 324.25,-172.5 324.25,-172.5 324.25,-271.5 324.25,-271.5 324.25,-277.5 318.25,-283.5 312.25,-283.5 312.25,-283.5 139,-283.5 139,-283.5 133,-283.5 127,-277.5 127,-271.5 127,-271.5 127,-172.5 127,-172.5 127,-166.5 133,-160.5 139,-160.5"/>
<text text-anchor="middle" x="225.62" y="-266.2" font-family="Times,serif" font-size="14.00" fill="#000000">input</text>
<text text-anchor="middle" x="225.62" y="-249.7" font-family="Times,serif" font-size="14.00" fill="#000000">0x103700910</text>
<polyline fill="none" stroke="#b6aa05" points="127,-242.5 324.25,-242.5"/>
<text text-anchor="middle" x="225.62" y="-225.2" font-family="Times,serif" font-size="14.00" fill="#000000">TYPE: KEYWORD</text>
<polyline fill="none" stroke="#b6aa05" points="127,-218 324.25,-218"/>
<text text-anchor="middle" x="153.75" y="-200.7" font-family="Times,serif" font-size="14.00" fill="#000000">Left</text>
<text text-anchor="middle" x="153.75" y="-184.2" font-family="Times,serif" font-size="14.00" fill="#000000">NONE</text>
<text text-anchor="middle" x="153.75" y="-167.7" font-family="Times,serif" font-size="14.00" fill="#000000">0x0</text>
<polyline fill="none" stroke="#b6aa05" points="180.5,-160.5 180.5,-218"/>
<text text-anchor="middle" x="225.62" y="-200.7" font-family="Times,serif" font-size="14.00" fill="#000000">Parent</text>
<text text-anchor="middle" x="225.62" y="-184.2" font-family="Times,serif" font-size="14.00" fill="#000000">=</text>
<text text-anchor="middle" x="225.62" y="-167.7" font-family="Times,serif" font-size="14.00" fill="#000000">0x103700950</text>
<polyline fill="none" stroke="#b6aa05" points="270.75,-160.5 270.75,-218"/>
<text text-anchor="middle" x="297.5" y="-200.7" font-family="Times,serif" font-size="14.00" fill="#000000">Right</text>
<text text-anchor="middle" x="297.5" y="-184.2" font-family="Times,serif" font-size="14.00" fill="#000000">NONE</text>
<text text-anchor="middle" x="297.5" y="-167.7" font-family="Times,serif" font-size="14.00" fill="#000000">0x0</text>
</g>
<!-- node0x103700950&#45;&gt;node0x103700910 -->
<g id="edge6" class="edge">
<title>node0x103700950:left&#45;&gt;node0x103700910</title>
<path fill="none" stroke="#187ae8" stroke-width="2" d="M260.38,-320C260.38,-311.67 259.22,-303.15 257.34,-294.8"/>
<polygon fill="#187ae8" stroke="#187ae8" stroke-width="2" points="261.18,-295.65 255.25,-286.87 254.42,-297.44 261.18,-295.65"/>
</g>
<!-- node0x1037008d0 -->
<g id="node11" class="node">
<title>node0x1037008d0</title>
<path fill="#d5cfe1" stroke="#8797b2" d="M354,-160.5C354,-160.5 527.25,-160.5 527.25,-160.5 533.25,-160.5 539.25,-166.5 539.25,-172.5 539.25,-172.5 539.25,-271.5 539.25,-271.5 539.25,-277.5 533.25,-283.5 527.25,-283.5 527.25,-283.5 354,-283.5 354,-283.5 348,-283.5 342,-277.5 342,-271.5 342,-271.5 342,-172.5 342,-172.5 342,-166.5 348,-160.5 354,-160.5"/>
<text text-anchor="middle" x="440.62" y="-266.2" font-family="Times,serif" font-size="14.00" fill="#000000">a</text>
<text text-anchor="middle" x="440.62" y="-249.7" font-family="Times,serif" font-size="14.00" fill="#000000">0x1037008d0</text>
<polyline fill="none" stroke="#8797b2" points="342,-242.5 539.25,-242.5"/>
<text text-anchor="middle" x="440.62" y="-225.2" font-family="Times,serif" font-size="14.00" fill="#000000">TYPE: IDENTIFIER</text>
<polyline fill="none" stroke="#8797b2" points="342,-218 539.25,-218"/>
<text text-anchor="middle" x="368.75" y="-200.7" font-family="Times,serif" font-size="14.00" fill="#000000">Left</text>
<text text-anchor="middle" x="368.75" y="-184.2" font-family="Times,serif" font-size="14.00" fill="#000000">NONE</text>
<text text-anchor="middle" x="368.75" y="-167.7" font-family="Times,serif" font-size="14.00" fill="#000000">0x0</text>
<polyline fill="none" stroke="#8797b2" points="395.5,-160.5 395.5,-218"/>
<text text-anchor="middle" x="440.62" y="-200.7" font-family="Times,serif" font-size="14.00" fill="#000000">Parent</text>
<text text-anchor="middle" x="440.62" y="-184.2" font-family="Times,serif" font-size="14.00" fill="#000000">=</text>
<text text-anchor="middle" x="440.62" y="-167.7" font-family="Times,serif" font-size="14.00" fill="#000000">0x103700950</text>
<polyline fill="none" stroke="#8797b2" points="485.75,-160.5 485.75,-218"/>
<text text-anchor="middle" x="512.5" y="-200.7" font-family="Times,serif" font-size="14.00" fill="#000000">Right</text>
<text text-anchor="middle" x="512.5" y="-184.2" font-family="Times,serif" font-size="14.00" fill="#000000">NONE</text>
<text text-anchor="middle" x="512.5" y="-167.7" font-family="Times,serif" font-size="14.00" fill="#000000">0x0</text>
</g>
<!-- node0x103700950&#45;&gt;node0x1037008d0 -->
<g id="edge7" class="edge">
<title>node0x103700950:right&#45;&gt;node0x1037008d0</title>
<path fill="none" stroke="#48e818" stroke-width="2" d="M440.88,-320C440.88,-311.95 440.87,-303.53 440.85,-295.15"/>
<polygon fill="#48e818" stroke="#48e818" stroke-width="2" points="444.36,-296.82 440.84,-286.83 437.36,-296.83 444.36,-296.82"/>
</g>
<!-- node0x103700850 -->
<g id="node13" class="node">
<title>node0x103700850</title>
<path fill="#f8e807" stroke="#b6aa05" d="M516.62,-320.5C516.62,-320.5 726.62,-320.5 726.62,-320.5 732.62,-320.5 738.62,-326.5 738.62,-332.5 738.62,-332.5 738.62,-431.5 738.62,-431.5 738.62,-437.5 732.62,-443.5 726.62,-443.5 726.62,-443.5 516.62,-443.5 516.62,-443.5 510.62,-443.5 504.62,-437.5 504.62,-431.5 504.62,-431.5 504.62,-332.5 504.62,-332.5 504.62,-326.5 510.62,-320.5 516.62,-320.5"/>
<text text-anchor="middle" x="621.62" y="-426.2" font-family="Times,serif" font-size="14.00" fill="#000000">printf</text>
<text text-anchor="middle" x="621.62" y="-409.7" font-family="Times,serif" font-size="14.00" fill="#000000">0x103700850</text>
<polyline fill="none" stroke="#b6aa05" points="504.62,-402.5 738.62,-402.5"/>
<text text-anchor="middle" x="621.62" y="-385.2" font-family="Times,serif" font-size="14.00" fill="#000000">TYPE: KEYWORD</text>
<polyline fill="none" stroke="#b6aa05" points="504.62,-378 738.62,-378"/>
<text text-anchor="middle" x="531.38" y="-360.7" font-family="Times,serif" font-size="14.00" fill="#000000">Left</text>
<text text-anchor="middle" x="531.38" y="-344.2" font-family="Times,serif" font-size="14.00" fill="#000000">NONE</text>
<text text-anchor="middle" x="531.38" y="-327.7" font-family="Times,serif" font-size="14.00" fill="#000000">0x0</text>
<polyline fill="none" stroke="#b6aa05" points="558.12,-320.5 558.12,-378"/>
<text text-anchor="middle" x="603.25" y="-360.7" font-family="Times,serif" font-size="14.00" fill="#000000">Parent</text>
<text text-anchor="middle" x="603.25" y="-344.2" font-family="Times,serif" font-size="14.00" fill="#000000">;</text>
<text text-anchor="middle" x="603.25" y="-327.7" font-family="Times,serif" font-size="14.00" fill="#000000">0x103700890</text>
<polyline fill="none" stroke="#b6aa05" points="648.38,-320.5 648.38,-378"/>
<text text-anchor="middle" x="693.5" y="-360.7" font-family="Times,serif" font-size="14.00" fill="#000000">Right</text>
<text text-anchor="middle" x="693.5" y="-344.2" font-family="Times,serif" font-size="14.00" fill="#000000">+</text>
<text text-anchor="middle" x="693.5" y="-327.7" font-family="Times,serif" font-size="14.00" fill="#000000">0x103700810</text>
</g>
<!-- node0x103700890&#45;&gt;node0x103700850 -->
<g id="edge9" class="edge">
<title>node0x103700890:left&#45;&gt;node0x103700850</title>
<path fill="none" stroke="#187ae8" stroke-width="2" d="M620.75,-480C620.75,-471.95 620.78,-463.53 620.83,-455.15"/>
<polygon fill="#187ae8" stroke="#187ae8" stroke-width="2" points="624.32,-456.85 620.89,-446.83 617.32,-456.8 624.32,-456.85"/>
</g>
<!-- node0x103700750 -->
<g id="node17" class="node">
<title>node0x103700750</title>
<path fill="#f8e807" stroke="#b6aa05" d="M848.62,-320.5C848.62,-320.5 1058.62,-320.5 1058.62,-320.5 1064.62,-320.5 1070.62,-326.5 1070.62,-332.5 1070.62,-332.5 1070.62,-431.5 1070.62,-431.5 1070.62,-437.5 1064.62,-443.5 1058.62,-443.5 1058.62,-443.5 848.62,-443.5 848.62,-443.5 842.62,-443.5 836.62,-437.5 836.62,-431.5 836.62,-431.5 836.62,-332.5 836.62,-332.5 836.62,-326.5 842.62,-320.5 848.62,-320.5"/>
<text text-anchor="middle" x="953.62" y="-426.2" font-family="Times,serif" font-size="14.00" fill="#000000">;</text>
<text text-anchor="middle" x="953.62" y="-409.7" font-family="Times,serif" font-size="14.00" fill="#000000">0x103700750</text>
<polyline fill="none" stroke="#b6aa05" points="836.62,-402.5 1070.62,-402.5"/>
<text text-anchor="middle" x="953.62" y="-385.2" font-family="Times,serif" font-size="14.00" fill="#000000">TYPE: KEYWORD</text>
<polyline fill="none" stroke="#b6aa05" points="836.62,-378 1070.62,-378"/>
<text text-anchor="middle" x="881.75" y="-360.7" font-family="Times,serif" font-size="14.00" fill="#000000">Left</text>
<text text-anchor="middle" x="881.75" y="-344.2" font-family="Times,serif" font-size="14.00" fill="#000000">return</text>
<text text-anchor="middle" x="881.75" y="-327.7" font-family="Times,serif" font-size="14.00" fill="#000000">0x103700710</text>
<polyline fill="none" stroke="#b6aa05" points="926.88,-320.5 926.88,-378"/>
<text text-anchor="middle" x="972" y="-360.7" font-family="Times,serif" font-size="14.00" fill="#000000">Parent</text>
<text text-anchor="middle" x="972" y="-344.2" font-family="Times,serif" font-size="14.00" fill="#000000">;</text>
<text text-anchor="middle" x="972" y="-327.7" font-family="Times,serif" font-size="14.00" fill="#000000">0x103700890</text>
<polyline fill="none" stroke="#b6aa05" points="1017.12,-320.5 1017.12,-378"/>
<text text-anchor="middle" x="1043.88" y="-360.7" font-family="Times,serif" font-size="14.00" fill="#000000">Right</text>
<text text-anchor="middle" x="1043.88" y="-344.2" font-family="Times,serif" font-size="14.00" fill="#000000">NONE</text>
<text text-anchor="middle" x="1043.88" y="-327.7" font-family="Times,serif" font-size="14.00" fill="#000000">0x0</text>
</g>
<!-- node0x103700890&#45;&gt;node0x103700750 -->
<g id="edge15" class="edge">
<title>node0x103700890:right&#45;&gt;node0x103700750</title>
<path fill="none" stroke="#48e818" stroke-width="2" d="M846.62,-509.25C880.44,-509.25 905.78,-482.56 923.29,-453.73"/>
<polygon fill="#48e818" stroke="#48e818" stroke-width="2" points="925.48,-456.95 927.42,-446.53 919.41,-453.46 925.48,-456.95"/>
</g>
<!-- node0x103700810 -->
<g id="node14" class="node">
<title>node0x103700810</title>
<path fill="#f8e807" stroke="#b6aa05" d="M569.25,-160.5C569.25,-160.5 816,-160.5 816,-160.5 822,-160.5 828,-166.5 828,-172.5 828,-172.5 828,-271.5 828,-271.5 828,-277.5 822,-283.5 816,-283.5 816,-283.5 569.25,-283.5 569.25,-283.5 563.25,-283.5 557.25,-277.5 557.25,-271.5 557.25,-271.5 557.25,-172.5 557.25,-172.5 557.25,-166.5 563.25,-160.5 569.25,-160.5"/>
<text text-anchor="middle" x="692.62" y="-266.2" font-family="Times,serif" font-size="14.00" fill="#000000">+</text>
<text text-anchor="middle" x="692.62" y="-249.7" font-family="Times,serif" font-size="14.00" fill="#000000">0x103700810</text>
<polyline fill="none" stroke="#b6aa05" points="557.25,-242.5 828,-242.5"/>
<text text-anchor="middle" x="692.62" y="-225.2" font-family="Times,serif" font-size="14.00" fill="#000000">TYPE: KEYWORD</text>
<polyline fill="none" stroke="#b6aa05" points="557.25,-218 828,-218"/>
<text text-anchor="middle" x="602.38" y="-200.7" font-family="Times,serif" font-size="14.00" fill="#000000">Left</text>
<text text-anchor="middle" x="602.38" y="-184.2" font-family="Times,serif" font-size="14.00" fill="#000000">a</text>
<text text-anchor="middle" x="602.38" y="-167.7" font-family="Times,serif" font-size="14.00" fill="#000000">0x1037007d0</text>
<polyline fill="none" stroke="#b6aa05" points="647.5,-160.5 647.5,-218"/>
<text text-anchor="middle" x="692.62" y="-200.7" font-family="Times,serif" font-size="14.00" fill="#000000">Parent</text>
<text text-anchor="middle" x="692.62" y="-184.2" font-family="Times,serif" font-size="14.00" fill="#000000">printf</text>
<text text-anchor="middle" x="692.62" y="-167.7" font-family="Times,serif" font-size="14.00" fill="#000000">0x103700850</text>
<polyline fill="none" stroke="#b6aa05" points="737.75,-160.5 737.75,-218"/>
<text text-anchor="middle" x="782.88" y="-200.7" font-family="Times,serif" font-size="14.00" fill="#000000">Right</text>
<text text-anchor="middle" x="782.88" y="-184.2" font-family="Times,serif" font-size="14.00" fill="#000000">10</text>
<text text-anchor="middle" x="782.88" y="-167.7" font-family="Times,serif" font-size="14.00" fill="#000000">0x103700790</text>
</g>
<!-- node0x103700850&#45;&gt;node0x103700810 -->
<g id="edge12" class="edge">
<title>node0x103700850:right&#45;&gt;node0x103700810</title>
<path fill="none" stroke="#48e818" stroke-width="2" d="M693.5,-320C693.5,-311.95 693.47,-303.53 693.42,-295.15"/>
<polygon fill="#48e818" stroke="#48e818" stroke-width="2" points="696.93,-296.8 693.36,-286.83 689.93,-296.85 696.93,-296.8"/>
</g>
<!-- node0x1037007d0 -->
<g id="node15" class="node">
<title>node0x1037007d0</title>
<path fill="#d5cfe1" stroke="#8797b2" d="M498,-0.5C498,-0.5 671.25,-0.5 671.25,-0.5 677.25,-0.5 683.25,-6.5 683.25,-12.5 683.25,-12.5 683.25,-111.5 683.25,-111.5 683.25,-117.5 677.25,-123.5 671.25,-123.5 671.25,-123.5 498,-123.5 498,-123.5 492,-123.5 486,-117.5 486,-111.5 486,-111.5 486,-12.5 486,-12.5 486,-6.5 492,-0.5 498,-0.5"/>
<text text-anchor="middle" x="584.62" y="-106.2" font-family="Times,serif" font-size="14.00" fill="#000000">a</text>
<text text-anchor="middle" x="584.62" y="-89.7" font-family="Times,serif" font-size="14.00" fill="#000000">0x1037007d0</text>
<polyline fill="none" stroke="#8797b2" points="486,-82.5 683.25,-82.5"/>
<text text-anchor="middle" x="584.62" y="-65.2" font-family="Times,serif" font-size="14.00" fill="#000000">TYPE: IDENTIFIER</text>
<polyline fill="none" stroke="#8797b2" points="486,-58 683.25,-58"/>
<text text-anchor="middle" x="512.75" y="-40.7" font-family="Times,serif" font-size="14.00" fill="#000000">Left</text>
<text text-anchor="middle" x="512.75" y="-24.2" font-family="Times,serif" font-size="14.00" fill="#000000">NONE</text>
<text text-anchor="middle" x="512.75" y="-7.7" font-family="Times,serif" font-size="14.00" fill="#000000">0x0</text>
<polyline fill="none" stroke="#8797b2" points="539.5,-0.5 539.5,-58"/>
<text text-anchor="middle" x="584.62" y="-40.7" font-family="Times,serif" font-size="14.00" fill="#000000">Parent</text>
<text text-anchor="middle" x="584.62" y="-24.2" font-family="Times,serif" font-size="14.00" fill="#000000">+</text>
<text text-anchor="middle" x="584.62" y="-7.7" font-family="Times,serif" font-size="14.00" fill="#000000">0x103700810</text>
<polyline fill="none" stroke="#8797b2" points="629.75,-0.5 629.75,-58"/>
<text text-anchor="middle" x="656.5" y="-40.7" font-family="Times,serif" font-size="14.00" fill="#000000">Right</text>
<text text-anchor="middle" x="656.5" y="-24.2" font-family="Times,serif" font-size="14.00" fill="#000000">NONE</text>
<text text-anchor="middle" x="656.5" y="-7.7" font-family="Times,serif" font-size="14.00" fill="#000000">0x0</text>
</g>
<!-- node0x103700810&#45;&gt;node0x1037007d0 -->
<g id="edge10" class="edge">
<title>node0x103700810:left&#45;&gt;node0x1037007d0</title>
<path fill="none" stroke="#187ae8" stroke-width="2" d="M602.38,-160C602.38,-151.88 601.77,-143.44 600.77,-135.07"/>
<polygon fill="#187ae8" stroke="#187ae8" stroke-width="2" points="604.46,-136.17 599.62,-126.75 597.53,-137.13 604.46,-136.17"/>
</g>
<!-- node0x103700790 -->
<g id="node16" class="node">
<title>node0x103700790</title>
<path fill="#bdef9e" stroke="#74af80" d="M713,-0.5C713,-0.5 886.25,-0.5 886.25,-0.5 892.25,-0.5 898.25,-6.5 898.25,-12.5 898.25,-12.5 898.25,-111.5 898.25,-111.5 898.25,-117.5 892.25,-123.5 886.25,-123.5 886.25,-123.5 713,-123.5 713,-123.5 707,-123.5 701,-117.5 701,-111.5 701,-111.5 701,-12.5 701,-12.5 701,-6.5 707,-0.5 713,-0.5"/>
<text text-anchor="middle" x="799.62" y="-106.2" font-family="Times,serif" font-size="14.00" fill="#000000">10</text>
<text text-anchor="middle" x="799.62" y="-89.7" font-family="Times,serif" font-size="14.00" fill="#000000">0x103700790</text>
<polyline fill="none" stroke="#74af80" points="701,-82.5 898.25,-82.5"/>
<text text-anchor="middle" x="799.62" y="-65.2" font-family="Times,serif" font-size="14.00" fill="#000000">TYPE: NUMBER</text>
<polyline fill="none" stroke="#74af80" points="701,-58 898.25,-58"/>
<text text-anchor="middle" x="727.75" y="-40.7" font-family="Times,serif" font-size="14.00" fill="#000000">Left</text>
<text text-anchor="middle" x="727.75" y="-24.2" font-family="Times,serif" font-size="14.00" fill="#000000">NONE</text>
<text text-anchor="middle" x="727.75" y="-7.7" font-family="Times,serif" font-size="14.00" fill="#000000">0x0</text>
<polyline fill="none" stroke="#74af80" points="754.5,-0.5 754.5,-58"/>
<text text-anchor="middle" x="799.62" y="-40.7" font-family="Times,serif" font-size="14.00" fill="#000000">Parent</text>
<text text-anchor="middle" x="799.62" y="-24.2" font-family="Times,serif" font-size="14.00" fill="#000000">+</text>
<text text-anchor="middle" x="799.62" y="-7.7" font-family="Times,serif" font-size="14.00" fill="#000000">0x103700810</text>
<polyline fill="none" stroke="#74af80" points="844.75,-0.5 844.75,-58"/>
<text text-anchor="middle" x="871.5" y="-40.7" font-family="Times,serif" font-size="14.00" fill="#000000">Right</text>
<text text-anchor="middle" x="871.5" y="-24.2" font-family="Times,serif" font-size="14.00" fill="#000000">NONE</text>
<text text-anchor="middle" x="871.5" y="-7.7" font-family="Times,serif" font-size="14.00" fill="#000000">0x0</text>
</g>
<!-- node0x103700810&#45;&gt;node0x103700790 -->
<g id="edge11" class="edge">
<title>node0x103700810:right&#45;&gt;node0x103700790</title>
<path fill="none" stroke="#48e818" stroke-width="2" d="M782.88,-160C782.88,-151.89 783.45,-143.46 784.39,-135.1"/>
<polygon fill="#48e818" stroke="#48e818" stroke-width="2" points="787.65,-137.15 785.48,-126.78 780.71,-136.24 787.65,-137.15"/>
</g>
<!-- node0x103700710 -->
<g id="node18" class="node">
<title>node0x103700710</title>
<path fill="#f8e807" stroke="#b6aa05" d="M857.62,-160.5C857.62,-160.5 1067.62,-160.5 1067.62,-160.5 1073.62,-160.5 1079.62,-166.5 1079.62,-172.5 1079.62,-172.5 1079.62,-271.5 1079.62,-271.5 1079.62,-277.5 1073.62,-283.5 1067.62,-283.5 1067.62,-283.5 857.62,-283.5 857.62,-283.5 851.62,-283.5 845.62,-277.5 845.62,-271.5 845.62,-271.5 845.62,-172.5 845.62,-172.5 845.62,-166.5 851.62,-160.5 857.62,-160.5"/>
<text text-anchor="middle" x="962.62" y="-266.2" font-family="Times,serif" font-size="14.00" fill="#000000">return</text>
<text text-anchor="middle" x="962.62" y="-249.7" font-family="Times,serif" font-size="14.00" fill="#000000">0x103700710</text>
<polyline fill="none" stroke="#b6aa05" points="845.62,-242.5 1079.62,-242.5"/>
<text text-anchor="middle" x="962.62" y="-225.2" font-family="Times,serif" font-size="14.00" fill="#000000">TYPE: KEYWORD</text>
<polyline fill="none" stroke="#b6aa05" points="845.62,-218 1079.62,-218"/>
<text text-anchor="middle" x="872.38" y="-200.7" font-family="Times,serif" font-size="14.00" fill="#000000">Left</text>
<text text-anchor="middle" x="872.38" y="-184.2" font-family="Times,serif" font-size="14.00" fill="#000000">NONE</text>
<text text-anchor="middle" x="872.38" y="-167.7" font-family="Times,serif" font-size="14.00" fill="#000000">0x0</text>
<polyline fill="none" stroke="#b6aa05" points="899.12,-160.5 899.12,-218"/>
<text text-anchor="middle" x="944.25" y="-200.7" font-family="Times,serif" font-size="14.00" fill="#000000">Parent</text>
<text text-anchor="middle" x="944.25" y="-184.2" font-family="Times,serif" font-size="14.00" fill="#000000">;</text>
<text text-anchor="middle" x="944.25" y="-167.7" font-family="Times,serif" font-size="14.00" fill="#000000">0x103700750</text>
<polyline fill="none" stroke="#b6aa05" points="989.38,-160.5 989.38,-218"/>
<text text-anchor="middle" x="1034.5" y="-200.7" font-family="Times,serif" font-size="14.00" fill="#000000">Right</text>
<text text-anchor="middle" x="1034.5" y="-184.2" font-family="Times,serif" font-size="14.00" fill="#000000">0</text>
<text text-anchor="middle" x="1034.5" y="-167.7" font-family="Times,serif" font-size="14.00" fill="#000000">0x1037006d0</text>
</g>
<!-- node0x103700750&#45;&gt;node0x103700710 -->
<g id="edge13" class="edge">
<title>node0x103700750:left&#45;&gt;node0x103700710</title>
<path fill="none" stroke="#187ae8" stroke-width="2" d="M881.75,-320C881.75,-310.9 883.87,-302.21 887.43,-294.02"/>
<polygon fill="#187ae8" stroke="#187ae8" stroke-width="2" points="889.77,-297.11 891.27,-286.62 883.56,-293.89 889.77,-297.11"/>
</g>
<!-- node0x1037006d0 -->
<g id="node19" class="node">
<title>node0x1037006d0</title>
<path fill="#bdef9e" stroke="#74af80" d="M947,-0.5C947,-0.5 1120.25,-0.5 1120.25,-0.5 1126.25,-0.5 1132.25,-6.5 1132.25,-12.5 1132.25,-12.5 1132.25,-111.5 1132.25,-111.5 1132.25,-117.5 1126.25,-123.5 1120.25,-123.5 1120.25,-123.5 947,-123.5 947,-123.5 941,-123.5 935,-117.5 935,-111.5 935,-111.5 935,-12.5 935,-12.5 935,-6.5 941,-0.5 947,-0.5"/>
<text text-anchor="middle" x="1033.62" y="-106.2" font-family="Times,serif" font-size="14.00" fill="#000000">0</text>
<text text-anchor="middle" x="1033.62" y="-89.7" font-family="Times,serif" font-size="14.00" fill="#000000">0x1037006d0</text>
<polyline fill="none" stroke="#74af80" points="935,-82.5 1132.25,-82.5"/>
<text text-anchor="middle" x="1033.62" y="-65.2" font-family="Times,serif" font-size="14.00" fill="#000000">TYPE: NUMBER</text>
<polyline fill="none" stroke="#74af80" points="935,-58 1132.25,-58"/>
<text text-anchor="middle" x="961.75" y="-40.7" font-family="Times,serif" font-size="14.00" fill="#000000">Left</text>
<text text-anchor="middle" x="961.75" y="-24.2" font-family="Times,serif" font-size="14.00" fill="#000000">NONE</text>
<text text-anchor="middle" x="961.75" y="-7.7" font-family="Times,serif" font-size="14.00" fill="#000000">0x0</text>
<polyline fill="none" stroke="#74af80" points="988.5,-0.5 988.5,-58"/>
<text text-anchor="middle" x="1033.62" y="-40.7" font-family="Times,serif" font-size="14.00" fill="#000000">Parent</text>
<text text-anchor="middle" x="1033.62" y="-24.2" font-family="Times,serif" font-size="14.00" fill="#000000">return</text>
<text text-anchor="middle" x="1033.62" y="-7.7" font-family="Times,serif" font-size="14.00" fill="#000000">0x103700710</text>
<polyline fill="none" stroke="#74af80" points="1078.75,-0.5 1078.75,-58"/>
<text text-anchor="middle" x="1105.5" y="-40.7" font-family="Times,serif" font-size="14.00" fill="#000000">Right</text>
<text text-anchor="middle" x="1105.5" y="-24.2" font-family="Times,serif" font-size="14.00" fill="#000000">NONE</text>
<text text-anchor="middle" x="1105.5" y="-7.7" font-family="Times,serif" font-size="14.00" fill="#000000">0x0</text>
</g>
<!-- node0x103700710&#45;&gt;node0x1037006d0 -->
<g id="edge14" class="edge">
<title>node0x103700710:right&#45;&gt;node0x1037006d0</title>
<path fill="none" stroke="#48e818" stroke-width="2" d="M1034.5,-160C1034.5,-151.95 1034.47,-143.53 1034.42,-135.15"/>
<polygon fill="#48e818" stroke="#48e818" stroke-width="2" points="1037.93,-136.8 1034.36,-126.83 1030.93,-136.85 1037.93,-136.8"/>
</g>
</g>
</svg>
