<?xml version="1.0" encoding="UTF-8" standalone="no"?>
<!DOCTYPE svg PUBLIC "-//W3C//DTD SVG 1.1//EN"
 "http://www.w3.org/Graphics/SVG/1.1/DTD/svg11.dtd">
<!-- Generated by graphviz version 12.2.0 (20241103.1931)
 -->
<!-- Pages: 1 -->
<svg width="1140pt" height="1252pt"
 viewBox="0.00 0.00 1140.25 1252.00" xmlns="http://www.w3.org/2000/svg" xmlns:xlink="http://www.w3.org/1999/xlink">
<g id="graph0" class="graph" transform="scale(1 1) rotate(0) translate(4 1248)">
<polygon fill="#dcdcdc" stroke="none" points="-4,4 -4,-1248 1136.25,-1248 1136.25,4 -4,4"/>
<!-- node0x107500650 -->
<g id="node1" class="node">
<title>node0x107500650</title>
<path fill="#f8e807" stroke="#b6aa05" d="M198.38,-1120.5C198.38,-1120.5 370.88,-1120.5 370.88,-1120.5 376.88,-1120.5 382.88,-1126.5 382.88,-1132.5 382.88,-1132.5 382.88,-1231.5 382.88,-1231.5 382.88,-1237.5 376.88,-1243.5 370.88,-1243.5 370.88,-1243.5 198.38,-1243.5 198.38,-1243.5 192.38,-1243.5 186.38,-1237.5 186.38,-1231.5 186.38,-1231.5 186.38,-1132.5 186.38,-1132.5 186.38,-1126.5 192.38,-1120.5 198.38,-1120.5"/>
<text text-anchor="middle" x="284.62" y="-1226.2" font-family="Times,serif" font-size="14.00" fill="#000000">;</text>
<text text-anchor="middle" x="284.62" y="-1209.7" font-family="Times,serif" font-size="14.00" fill="#000000">0x107500650</text>
<polyline fill="none" stroke="#b6aa05" points="186.38,-1202.5 382.88,-1202.5"/>
<text text-anchor="middle" x="284.62" y="-1185.2" font-family="Times,serif" font-size="14.00" fill="#000000">TYPE: KEYWORD</text>
<polyline fill="none" stroke="#b6aa05" points="186.38,-1178 382.88,-1178"/>
<text text-anchor="middle" x="231.12" y="-1160.7" font-family="Times,serif" font-size="14.00" fill="#000000">Left</text>
<text text-anchor="middle" x="231.12" y="-1144.2" font-family="Times,serif" font-size="14.00" fill="#000000">main</text>
<text text-anchor="middle" x="231.12" y="-1127.7" font-family="Times,serif" font-size="14.00" fill="#000000">0x107500a90</text>
<polyline fill="none" stroke="#b6aa05" points="275.88,-1120.5 275.88,-1178"/>
<text text-anchor="middle" x="302.62" y="-1160.7" font-family="Times,serif" font-size="14.00" fill="#000000">Parent</text>
<text text-anchor="middle" x="302.62" y="-1144.2" font-family="Times,serif" font-size="14.00" fill="#000000">NONE</text>
<text text-anchor="middle" x="302.62" y="-1127.7" font-family="Times,serif" font-size="14.00" fill="#000000">0x0</text>
<polyline fill="none" stroke="#b6aa05" points="329.38,-1120.5 329.38,-1178"/>
<text text-anchor="middle" x="356.12" y="-1160.7" font-family="Times,serif" font-size="14.00" fill="#000000">Right</text>
<text text-anchor="middle" x="356.12" y="-1144.2" font-family="Times,serif" font-size="14.00" fill="#000000">NONE</text>
<text text-anchor="middle" x="356.12" y="-1127.7" font-family="Times,serif" font-size="14.00" fill="#000000">0x0</text>
</g>
<!-- node0x107500a90 -->
<g id="node2" class="node">
<title>node0x107500a90</title>
<path fill="#8ee3ef" stroke="#37718e" d="M100.75,-960.5C100.75,-960.5 362.5,-960.5 362.5,-960.5 368.5,-960.5 374.5,-966.5 374.5,-972.5 374.5,-972.5 374.5,-1071.5 374.5,-1071.5 374.5,-1077.5 368.5,-1083.5 362.5,-1083.5 362.5,-1083.5 100.75,-1083.5 100.75,-1083.5 94.75,-1083.5 88.75,-1077.5 88.75,-1071.5 88.75,-1071.5 88.75,-972.5 88.75,-972.5 88.75,-966.5 94.75,-960.5 100.75,-960.5"/>
<text text-anchor="middle" x="231.62" y="-1066.2" font-family="Times,serif" font-size="14.00" fill="#000000">main</text>
<text text-anchor="middle" x="231.62" y="-1049.7" font-family="Times,serif" font-size="14.00" fill="#000000">0x107500a90</text>
<polyline fill="none" stroke="#37718e" points="88.75,-1042.5 374.5,-1042.5"/>
<text text-anchor="middle" x="231.62" y="-1025.2" font-family="Times,serif" font-size="14.00" fill="#000000">TYPE: FUNCTION_DEFINITION</text>
<polyline fill="none" stroke="#37718e" points="88.75,-1018 374.5,-1018"/>
<text text-anchor="middle" x="133.5" y="-1000.7" font-family="Times,serif" font-size="14.00" fill="#000000">Left</text>
<text text-anchor="middle" x="133.5" y="-984.2" font-family="Times,serif" font-size="14.00" fill="#000000">double</text>
<text text-anchor="middle" x="133.5" y="-967.7" font-family="Times,serif" font-size="14.00" fill="#000000">0x107500ad0</text>
<polyline fill="none" stroke="#37718e" points="178.25,-960.5 178.25,-1018"/>
<text text-anchor="middle" x="223.38" y="-1000.7" font-family="Times,serif" font-size="14.00" fill="#000000">Parent</text>
<text text-anchor="middle" x="223.38" y="-984.2" font-family="Times,serif" font-size="14.00" fill="#000000">;</text>
<text text-anchor="middle" x="223.38" y="-967.7" font-family="Times,serif" font-size="14.00" fill="#000000">0x107500650</text>
<polyline fill="none" stroke="#37718e" points="268.5,-960.5 268.5,-1018"/>
<text text-anchor="middle" x="321.5" y="-1000.7" font-family="Times,serif" font-size="14.00" fill="#000000">Right</text>
<text text-anchor="middle" x="321.5" y="-984.2" font-family="Times,serif" font-size="14.00" fill="#000000">PARAMETERS</text>
<text text-anchor="middle" x="321.5" y="-967.7" font-family="Times,serif" font-size="14.00" fill="#000000">0x107500a10</text>
</g>
<!-- node0x107500650&#45;&gt;node0x107500a90 -->
<g id="edge1" class="edge">
<title>node0x107500650:left&#45;&gt;node0x107500a90</title>
<path fill="none" stroke="#187ae8" stroke-width="2" d="M231.12,-1120C231.12,-1111.95 231.14,-1103.53 231.17,-1095.15"/>
<polygon fill="#187ae8" stroke="#187ae8" stroke-width="2" points="234.66,-1096.84 231.2,-1086.83 227.66,-1096.81 234.66,-1096.84"/>
</g>
<!-- node0x107500ad0 -->
<g id="node3" class="node">
<title>node0x107500ad0</title>
<path fill="#f8e807" stroke="#b6aa05" d="M15.38,-800.5C15.38,-800.5 187.88,-800.5 187.88,-800.5 193.88,-800.5 199.88,-806.5 199.88,-812.5 199.88,-812.5 199.88,-911.5 199.88,-911.5 199.88,-917.5 193.88,-923.5 187.88,-923.5 187.88,-923.5 15.37,-923.5 15.37,-923.5 9.38,-923.5 3.38,-917.5 3.38,-911.5 3.38,-911.5 3.38,-812.5 3.38,-812.5 3.38,-806.5 9.38,-800.5 15.38,-800.5"/>
<text text-anchor="middle" x="101.62" y="-906.2" font-family="Times,serif" font-size="14.00" fill="#000000">double</text>
<text text-anchor="middle" x="101.62" y="-889.7" font-family="Times,serif" font-size="14.00" fill="#000000">0x107500ad0</text>
<polyline fill="none" stroke="#b6aa05" points="3.38,-882.5 199.88,-882.5"/>
<text text-anchor="middle" x="101.62" y="-865.2" font-family="Times,serif" font-size="14.00" fill="#000000">TYPE: KEYWORD</text>
<polyline fill="none" stroke="#b6aa05" points="3.38,-858 199.88,-858"/>
<text text-anchor="middle" x="30.12" y="-840.7" font-family="Times,serif" font-size="14.00" fill="#000000">Left</text>
<text text-anchor="middle" x="30.12" y="-824.2" font-family="Times,serif" font-size="14.00" fill="#000000">NONE</text>
<text text-anchor="middle" x="30.12" y="-807.7" font-family="Times,serif" font-size="14.00" fill="#000000">0x0</text>
<polyline fill="none" stroke="#b6aa05" points="56.88,-800.5 56.88,-858"/>
<text text-anchor="middle" x="101.62" y="-840.7" font-family="Times,serif" font-size="14.00" fill="#000000">Parent</text>
<text text-anchor="middle" x="101.62" y="-824.2" font-family="Times,serif" font-size="14.00" fill="#000000">main</text>
<text text-anchor="middle" x="101.62" y="-807.7" font-family="Times,serif" font-size="14.00" fill="#000000">0x107500a90</text>
<polyline fill="none" stroke="#b6aa05" points="146.38,-800.5 146.38,-858"/>
<text text-anchor="middle" x="173.12" y="-840.7" font-family="Times,serif" font-size="14.00" fill="#000000">Right</text>
<text text-anchor="middle" x="173.12" y="-824.2" font-family="Times,serif" font-size="14.00" fill="#000000">NONE</text>
<text text-anchor="middle" x="173.12" y="-807.7" font-family="Times,serif" font-size="14.00" fill="#000000">0x0</text>
</g>
<!-- node0x107500a90&#45;&gt;node0x107500ad0 -->
<g id="edge2" class="edge">
<title>node0x107500a90:left&#45;&gt;node0x107500ad0</title>
<path fill="none" stroke="#187ae8" stroke-width="2" d="M133.5,-960C133.5,-951.77 132.45,-943.34 130.74,-935.05"/>
<polygon fill="#187ae8" stroke="#187ae8" stroke-width="2" points="134.5,-935.7 128.73,-926.8 127.69,-937.35 134.5,-935.7"/>
</g>
<!-- node0x107500a10 -->
<g id="node4" class="node">
<title>node0x107500a10</title>
<path fill="#ebcbf4" stroke="#c986c3" d="M230,-800.5C230,-800.5 475.25,-800.5 475.25,-800.5 481.25,-800.5 487.25,-806.5 487.25,-812.5 487.25,-812.5 487.25,-911.5 487.25,-911.5 487.25,-917.5 481.25,-923.5 475.25,-923.5 475.25,-923.5 230,-923.5 230,-923.5 224,-923.5 218,-917.5 218,-911.5 218,-911.5 218,-812.5 218,-812.5 218,-806.5 224,-800.5 230,-800.5"/>
<text text-anchor="middle" x="352.62" y="-906.2" font-family="Times,serif" font-size="14.00" fill="#000000">PARAMETERS</text>
<text text-anchor="middle" x="352.62" y="-889.7" font-family="Times,serif" font-size="14.00" fill="#000000">0x107500a10</text>
<polyline fill="none" stroke="#c986c3" points="218,-882.5 487.25,-882.5"/>
<text text-anchor="middle" x="352.62" y="-865.2" font-family="Times,serif" font-size="14.00" fill="#000000">TYPE: PARAMETERS</text>
<polyline fill="none" stroke="#c986c3" points="218,-858 487.25,-858"/>
<text text-anchor="middle" x="262.75" y="-840.7" font-family="Times,serif" font-size="14.00" fill="#000000">Left</text>
<text text-anchor="middle" x="262.75" y="-824.2" font-family="Times,serif" font-size="14.00" fill="#000000">,</text>
<text text-anchor="middle" x="262.75" y="-807.7" font-family="Times,serif" font-size="14.00" fill="#000000">0x107500a50</text>
<polyline fill="none" stroke="#c986c3" points="307.5,-800.5 307.5,-858"/>
<text text-anchor="middle" x="352.25" y="-840.7" font-family="Times,serif" font-size="14.00" fill="#000000">Parent</text>
<text text-anchor="middle" x="352.25" y="-824.2" font-family="Times,serif" font-size="14.00" fill="#000000">main</text>
<text text-anchor="middle" x="352.25" y="-807.7" font-family="Times,serif" font-size="14.00" fill="#000000">0x107500a90</text>
<polyline fill="none" stroke="#c986c3" points="397,-800.5 397,-858"/>
<text text-anchor="middle" x="442.12" y="-840.7" font-family="Times,serif" font-size="14.00" fill="#000000">Right</text>
<text text-anchor="middle" x="442.12" y="-824.2" font-family="Times,serif" font-size="14.00" fill="#000000">;</text>
<text text-anchor="middle" x="442.12" y="-807.7" font-family="Times,serif" font-size="14.00" fill="#000000">0x107500890</text>
</g>
<!-- node0x107500a90&#45;&gt;node0x107500a10 -->
<g id="edge18" class="edge">
<title>node0x107500a90:right&#45;&gt;node0x107500a10</title>
<path fill="none" stroke="#48e818" stroke-width="2" d="M321.5,-960C321.5,-951.79 322.52,-943.37 324.2,-935.09"/>
<polygon fill="#48e818" stroke="#48e818" stroke-width="2" points="327.25,-937.39 326.15,-926.85 320.44,-935.77 327.25,-937.39"/>
</g>
<!-- node0x107500a50 -->
<g id="node5" class="node">
<title>node0x107500a50</title>
<path fill="#f8e807" stroke="#b6aa05" d="M124.12,-640.5C124.12,-640.5 313.12,-640.5 313.12,-640.5 319.12,-640.5 325.12,-646.5 325.12,-652.5 325.12,-652.5 325.12,-751.5 325.12,-751.5 325.12,-757.5 319.12,-763.5 313.12,-763.5 313.12,-763.5 124.13,-763.5 124.13,-763.5 118.12,-763.5 112.12,-757.5 112.12,-751.5 112.12,-751.5 112.12,-652.5 112.12,-652.5 112.12,-646.5 118.12,-640.5 124.12,-640.5"/>
<text text-anchor="middle" x="218.62" y="-746.2" font-family="Times,serif" font-size="14.00" fill="#000000">,</text>
<text text-anchor="middle" x="218.62" y="-729.7" font-family="Times,serif" font-size="14.00" fill="#000000">0x107500a50</text>
<polyline fill="none" stroke="#b6aa05" points="112.12,-722.5 325.12,-722.5"/>
<text text-anchor="middle" x="218.62" y="-705.2" font-family="Times,serif" font-size="14.00" fill="#000000">TYPE: KEYWORD</text>
<polyline fill="none" stroke="#b6aa05" points="112.12,-698 325.12,-698"/>
<text text-anchor="middle" x="138.88" y="-680.7" font-family="Times,serif" font-size="14.00" fill="#000000">Left</text>
<text text-anchor="middle" x="138.88" y="-664.2" font-family="Times,serif" font-size="14.00" fill="#000000">NONE</text>
<text text-anchor="middle" x="138.88" y="-647.7" font-family="Times,serif" font-size="14.00" fill="#000000">0x0</text>
<polyline fill="none" stroke="#b6aa05" points="165.62,-640.5 165.62,-698"/>
<text text-anchor="middle" x="218.62" y="-680.7" font-family="Times,serif" font-size="14.00" fill="#000000">Parent</text>
<text text-anchor="middle" x="218.62" y="-664.2" font-family="Times,serif" font-size="14.00" fill="#000000">PARAMETERS</text>
<text text-anchor="middle" x="218.62" y="-647.7" font-family="Times,serif" font-size="14.00" fill="#000000">0x107500a10</text>
<polyline fill="none" stroke="#b6aa05" points="271.62,-640.5 271.62,-698"/>
<text text-anchor="middle" x="298.38" y="-680.7" font-family="Times,serif" font-size="14.00" fill="#000000">Right</text>
<text text-anchor="middle" x="298.38" y="-664.2" font-family="Times,serif" font-size="14.00" fill="#000000">NONE</text>
<text text-anchor="middle" x="298.38" y="-647.7" font-family="Times,serif" font-size="14.00" fill="#000000">0x0</text>
</g>
<!-- node0x107500a10&#45;&gt;node0x107500a50 -->
<g id="edge3" class="edge">
<title>node0x107500a10:left&#45;&gt;node0x107500a50</title>
<path fill="none" stroke="#187ae8" stroke-width="2" d="M262.75,-800C262.75,-791.51 261.33,-782.95 259,-774.61"/>
<polygon fill="#187ae8" stroke="#187ae8" stroke-width="2" points="262.85,-775.09 256.41,-766.68 256.19,-777.27 262.85,-775.09"/>
</g>
<!-- node0x107500890 -->
<g id="node6" class="node">
<title>node0x107500890</title>
<path fill="#f8e807" stroke="#b6aa05" d="M355.38,-640.5C355.38,-640.5 617.88,-640.5 617.88,-640.5 623.88,-640.5 629.88,-646.5 629.88,-652.5 629.88,-652.5 629.88,-751.5 629.88,-751.5 629.88,-757.5 623.88,-763.5 617.88,-763.5 617.88,-763.5 355.38,-763.5 355.38,-763.5 349.38,-763.5 343.38,-757.5 343.38,-751.5 343.38,-751.5 343.38,-652.5 343.38,-652.5 343.38,-646.5 349.38,-640.5 355.38,-640.5"/>
<text text-anchor="middle" x="486.62" y="-746.2" font-family="Times,serif" font-size="14.00" fill="#000000">;</text>
<text text-anchor="middle" x="486.62" y="-729.7" font-family="Times,serif" font-size="14.00" fill="#000000">0x107500890</text>
<polyline fill="none" stroke="#b6aa05" points="343.38,-722.5 629.88,-722.5"/>
<text text-anchor="middle" x="486.62" y="-705.2" font-family="Times,serif" font-size="14.00" fill="#000000">TYPE: KEYWORD</text>
<polyline fill="none" stroke="#b6aa05" points="343.38,-698 629.88,-698"/>
<text text-anchor="middle" x="388.5" y="-680.7" font-family="Times,serif" font-size="14.00" fill="#000000">Left</text>
<text text-anchor="middle" x="388.5" y="-664.2" font-family="Times,serif" font-size="14.00" fill="#000000">a</text>
<text text-anchor="middle" x="388.5" y="-647.7" font-family="Times,serif" font-size="14.00" fill="#000000">0x1075008d0</text>
<polyline fill="none" stroke="#b6aa05" points="433.62,-640.5 433.62,-698"/>
<text text-anchor="middle" x="486.62" y="-680.7" font-family="Times,serif" font-size="14.00" fill="#000000">Parent</text>
<text text-anchor="middle" x="486.62" y="-664.2" font-family="Times,serif" font-size="14.00" fill="#000000">PARAMETERS</text>
<text text-anchor="middle" x="486.62" y="-647.7" font-family="Times,serif" font-size="14.00" fill="#000000">0x107500a10</text>
<polyline fill="none" stroke="#b6aa05" points="539.62,-640.5 539.62,-698"/>
<text text-anchor="middle" x="584.75" y="-680.7" font-family="Times,serif" font-size="14.00" fill="#000000">Right</text>
<text text-anchor="middle" x="584.75" y="-664.2" font-family="Times,serif" font-size="14.00" fill="#000000">;</text>
<text text-anchor="middle" x="584.75" y="-647.7" font-family="Times,serif" font-size="14.00" fill="#000000">0x107500750</text>
</g>
<!-- node0x107500a10&#45;&gt;node0x107500890 -->
<g id="edge17" class="edge">
<title>node0x107500a10:right&#45;&gt;node0x107500890</title>
<path fill="none" stroke="#48e818" stroke-width="2" d="M442.12,-800C442.12,-791.5 443.55,-782.93 445.9,-774.58"/>
<polygon fill="#48e818" stroke="#48e818" stroke-width="2" points="448.71,-777.24 448.52,-766.65 442.06,-775.05 448.71,-777.24"/>
</g>
<!-- node0x1075008d0 -->
<g id="node7" class="node">
<title>node0x1075008d0</title>
<path fill="#f34f5d" stroke="#bd132f" d="M137.25,-480.5C137.25,-480.5 384,-480.5 384,-480.5 390,-480.5 396,-486.5 396,-492.5 396,-492.5 396,-591.5 396,-591.5 396,-597.5 390,-603.5 384,-603.5 384,-603.5 137.25,-603.5 137.25,-603.5 131.25,-603.5 125.25,-597.5 125.25,-591.5 125.25,-591.5 125.25,-492.5 125.25,-492.5 125.25,-486.5 131.25,-480.5 137.25,-480.5"/>
<text text-anchor="middle" x="260.62" y="-586.2" font-family="Times,serif" font-size="14.00" fill="#000000">a</text>
<text text-anchor="middle" x="260.62" y="-569.7" font-family="Times,serif" font-size="14.00" fill="#000000">0x1075008d0</text>
<polyline fill="none" stroke="#bd132f" points="125.25,-562.5 396,-562.5"/>
<text text-anchor="middle" x="260.62" y="-545.2" font-family="Times,serif" font-size="14.00" fill="#000000">TYPE: VAR_DECLARATION</text>
<polyline fill="none" stroke="#bd132f" points="125.25,-538 396,-538"/>
<text text-anchor="middle" x="170.38" y="-520.7" font-family="Times,serif" font-size="14.00" fill="#000000">Left</text>
<text text-anchor="middle" x="170.38" y="-504.2" font-family="Times,serif" font-size="14.00" fill="#000000">double</text>
<text text-anchor="middle" x="170.38" y="-487.7" font-family="Times,serif" font-size="14.00" fill="#000000">0x107500950</text>
<polyline fill="none" stroke="#bd132f" points="215.5,-480.5 215.5,-538"/>
<text text-anchor="middle" x="260.62" y="-520.7" font-family="Times,serif" font-size="14.00" fill="#000000">Parent</text>
<text text-anchor="middle" x="260.62" y="-504.2" font-family="Times,serif" font-size="14.00" fill="#000000">;</text>
<text text-anchor="middle" x="260.62" y="-487.7" font-family="Times,serif" font-size="14.00" fill="#000000">0x107500890</text>
<polyline fill="none" stroke="#bd132f" points="305.75,-480.5 305.75,-538"/>
<text text-anchor="middle" x="350.88" y="-520.7" font-family="Times,serif" font-size="14.00" fill="#000000">Right</text>
<text text-anchor="middle" x="350.88" y="-504.2" font-family="Times,serif" font-size="14.00" fill="#000000">=</text>
<text text-anchor="middle" x="350.88" y="-487.7" font-family="Times,serif" font-size="14.00" fill="#000000">0x107500910</text>
</g>
<!-- node0x107500890&#45;&gt;node0x1075008d0 -->
<g id="edge4" class="edge">
<title>node0x107500890:left&#45;&gt;node0x1075008d0</title>
<path fill="none" stroke="#187ae8" stroke-width="2" d="M342.38,-669.25C328.93,-669.25 340.54,-652.08 334.62,-640 330.18,-630.92 324.82,-621.85 319.04,-613.11"/>
<polygon fill="#187ae8" stroke="#187ae8" stroke-width="2" points="322.88,-612.53 314.34,-606.26 317.11,-616.49 322.88,-612.53"/>
</g>
<!-- node0x107500750 -->
<g id="node12" class="node">
<title>node0x107500750</title>
<path fill="#f8e807" stroke="#b6aa05" d="M588.25,-480.5C588.25,-480.5 835,-480.5 835,-480.5 841,-480.5 847,-486.5 847,-492.5 847,-492.5 847,-591.5 847,-591.5 847,-597.5 841,-603.5 835,-603.5 835,-603.5 588.25,-603.5 588.25,-603.5 582.25,-603.5 576.25,-597.5 576.25,-591.5 576.25,-591.5 576.25,-492.5 576.25,-492.5 576.25,-486.5 582.25,-480.5 588.25,-480.5"/>
<text text-anchor="middle" x="711.62" y="-586.2" font-family="Times,serif" font-size="14.00" fill="#000000">;</text>
<text text-anchor="middle" x="711.62" y="-569.7" font-family="Times,serif" font-size="14.00" fill="#000000">0x107500750</text>
<polyline fill="none" stroke="#b6aa05" points="576.25,-562.5 847,-562.5"/>
<text text-anchor="middle" x="711.62" y="-545.2" font-family="Times,serif" font-size="14.00" fill="#000000">TYPE: KEYWORD</text>
<polyline fill="none" stroke="#b6aa05" points="576.25,-538 847,-538"/>
<text text-anchor="middle" x="621.38" y="-520.7" font-family="Times,serif" font-size="14.00" fill="#000000">Left</text>
<text text-anchor="middle" x="621.38" y="-504.2" font-family="Times,serif" font-size="14.00" fill="#000000">printf</text>
<text text-anchor="middle" x="621.38" y="-487.7" font-family="Times,serif" font-size="14.00" fill="#000000">0x107500790</text>
<polyline fill="none" stroke="#b6aa05" points="666.5,-480.5 666.5,-538"/>
<text text-anchor="middle" x="711.62" y="-520.7" font-family="Times,serif" font-size="14.00" fill="#000000">Parent</text>
<text text-anchor="middle" x="711.62" y="-504.2" font-family="Times,serif" font-size="14.00" fill="#000000">;</text>
<text text-anchor="middle" x="711.62" y="-487.7" font-family="Times,serif" font-size="14.00" fill="#000000">0x107500890</text>
<polyline fill="none" stroke="#b6aa05" points="756.75,-480.5 756.75,-538"/>
<text text-anchor="middle" x="801.88" y="-520.7" font-family="Times,serif" font-size="14.00" fill="#000000">Right</text>
<text text-anchor="middle" x="801.88" y="-504.2" font-family="Times,serif" font-size="14.00" fill="#000000">;</text>
<text text-anchor="middle" x="801.88" y="-487.7" font-family="Times,serif" font-size="14.00" fill="#000000">0x107500690</text>
</g>
<!-- node0x107500890&#45;&gt;node0x107500750 -->
<g id="edge16" class="edge">
<title>node0x107500890:right&#45;&gt;node0x107500750</title>
<path fill="none" stroke="#48e818" stroke-width="2" d="M630.88,-669.25C661.23,-669.25 680.69,-643.03 692.88,-614.48"/>
<polygon fill="#48e818" stroke="#48e818" stroke-width="2" points="695.53,-617.31 695.94,-606.72 689.01,-614.74 695.53,-617.31"/>
</g>
<!-- node0x107500950 -->
<g id="node8" class="node">
<title>node0x107500950</title>
<path fill="#f8e807" stroke="#b6aa05" d="M12,-320.5C12,-320.5 185.25,-320.5 185.25,-320.5 191.25,-320.5 197.25,-326.5 197.25,-332.5 197.25,-332.5 197.25,-431.5 197.25,-431.5 197.25,-437.5 191.25,-443.5 185.25,-443.5 185.25,-443.5 12,-443.5 12,-443.5 6,-443.5 0,-437.5 0,-431.5 0,-431.5 0,-332.5 0,-332.5 0,-326.5 6,-320.5 12,-320.5"/>
<text text-anchor="middle" x="98.62" y="-426.2" font-family="Times,serif" font-size="14.00" fill="#000000">double</text>
<text text-anchor="middle" x="98.62" y="-409.7" font-family="Times,serif" font-size="14.00" fill="#000000">0x107500950</text>
<polyline fill="none" stroke="#b6aa05" points="0,-402.5 197.25,-402.5"/>
<text text-anchor="middle" x="98.62" y="-385.2" font-family="Times,serif" font-size="14.00" fill="#000000">TYPE: KEYWORD</text>
<polyline fill="none" stroke="#b6aa05" points="0,-378 197.25,-378"/>
<text text-anchor="middle" x="26.75" y="-360.7" font-family="Times,serif" font-size="14.00" fill="#000000">Left</text>
<text text-anchor="middle" x="26.75" y="-344.2" font-family="Times,serif" font-size="14.00" fill="#000000">NONE</text>
<text text-anchor="middle" x="26.75" y="-327.7" font-family="Times,serif" font-size="14.00" fill="#000000">0x0</text>
<polyline fill="none" stroke="#b6aa05" points="53.5,-320.5 53.5,-378"/>
<text text-anchor="middle" x="98.62" y="-360.7" font-family="Times,serif" font-size="14.00" fill="#000000">Parent</text>
<text text-anchor="middle" x="98.62" y="-344.2" font-family="Times,serif" font-size="14.00" fill="#000000">a</text>
<text text-anchor="middle" x="98.62" y="-327.7" font-family="Times,serif" font-size="14.00" fill="#000000">0x1075008d0</text>
<polyline fill="none" stroke="#b6aa05" points="143.75,-320.5 143.75,-378"/>
<text text-anchor="middle" x="170.5" y="-360.7" font-family="Times,serif" font-size="14.00" fill="#000000">Right</text>
<text text-anchor="middle" x="170.5" y="-344.2" font-family="Times,serif" font-size="14.00" fill="#000000">NONE</text>
<text text-anchor="middle" x="170.5" y="-327.7" font-family="Times,serif" font-size="14.00" fill="#000000">0x0</text>
</g>
<!-- node0x1075008d0&#45;&gt;node0x107500950 -->
<g id="edge5" class="edge">
<title>node0x1075008d0:left&#45;&gt;node0x107500950</title>
<path fill="none" stroke="#187ae8" stroke-width="2" d="M170.38,-480C170.38,-471.02 168.36,-462.32 165.01,-454.07"/>
<polygon fill="#187ae8" stroke="#187ae8" stroke-width="2" points="168.9,-454.08 161.41,-446.59 162.59,-457.12 168.9,-454.08"/>
</g>
<!-- node0x107500910 -->
<g id="node9" class="node">
<title>node0x107500910</title>
<path fill="#f8e807" stroke="#b6aa05" d="M227.25,-320.5C227.25,-320.5 474,-320.5 474,-320.5 480,-320.5 486,-326.5 486,-332.5 486,-332.5 486,-431.5 486,-431.5 486,-437.5 480,-443.5 474,-443.5 474,-443.5 227.25,-443.5 227.25,-443.5 221.25,-443.5 215.25,-437.5 215.25,-431.5 215.25,-431.5 215.25,-332.5 215.25,-332.5 215.25,-326.5 221.25,-320.5 227.25,-320.5"/>
<text text-anchor="middle" x="350.62" y="-426.2" font-family="Times,serif" font-size="14.00" fill="#000000">=</text>
<text text-anchor="middle" x="350.62" y="-409.7" font-family="Times,serif" font-size="14.00" fill="#000000">0x107500910</text>
<polyline fill="none" stroke="#b6aa05" points="215.25,-402.5 486,-402.5"/>
<text text-anchor="middle" x="350.62" y="-385.2" font-family="Times,serif" font-size="14.00" fill="#000000">TYPE: KEYWORD</text>
<polyline fill="none" stroke="#b6aa05" points="215.25,-378 486,-378"/>
<text text-anchor="middle" x="260.38" y="-360.7" font-family="Times,serif" font-size="14.00" fill="#000000">Left</text>
<text text-anchor="middle" x="260.38" y="-344.2" font-family="Times,serif" font-size="14.00" fill="#000000">input</text>
<text text-anchor="middle" x="260.38" y="-327.7" font-family="Times,serif" font-size="14.00" fill="#000000">0x107500990</text>
<polyline fill="none" stroke="#b6aa05" points="305.5,-320.5 305.5,-378"/>
<text text-anchor="middle" x="350.62" y="-360.7" font-family="Times,serif" font-size="14.00" fill="#000000">Parent</text>
<text text-anchor="middle" x="350.62" y="-344.2" font-family="Times,serif" font-size="14.00" fill="#000000">a</text>
<text text-anchor="middle" x="350.62" y="-327.7" font-family="Times,serif" font-size="14.00" fill="#000000">0x1075008d0</text>
<polyline fill="none" stroke="#b6aa05" points="395.75,-320.5 395.75,-378"/>
<text text-anchor="middle" x="440.88" y="-360.7" font-family="Times,serif" font-size="14.00" fill="#000000">Right</text>
<text text-anchor="middle" x="440.88" y="-344.2" font-family="Times,serif" font-size="14.00" fill="#000000">a</text>
<text text-anchor="middle" x="440.88" y="-327.7" font-family="Times,serif" font-size="14.00" fill="#000000">0x1075009d0</text>
</g>
<!-- node0x1075008d0&#45;&gt;node0x107500910 -->
<g id="edge8" class="edge">
<title>node0x1075008d0:right&#45;&gt;node0x107500910</title>
<path fill="none" stroke="#48e818" stroke-width="2" d="M350.88,-480C350.88,-471.95 350.87,-463.53 350.85,-455.15"/>
<polygon fill="#48e818" stroke="#48e818" stroke-width="2" points="354.36,-456.82 350.84,-446.83 347.36,-456.83 354.36,-456.82"/>
</g>
<!-- node0x107500990 -->
<g id="node10" class="node">
<title>node0x107500990</title>
<path fill="#f8e807" stroke="#b6aa05" d="M139,-160.5C139,-160.5 312.25,-160.5 312.25,-160.5 318.25,-160.5 324.25,-166.5 324.25,-172.5 324.25,-172.5 324.25,-271.5 324.25,-271.5 324.25,-277.5 318.25,-283.5 312.25,-283.5 312.25,-283.5 139,-283.5 139,-283.5 133,-283.5 127,-277.5 127,-271.5 127,-271.5 127,-172.5 127,-172.5 127,-166.5 133,-160.5 139,-160.5"/>
<text text-anchor="middle" x="225.62" y="-266.2" font-family="Times,serif" font-size="14.00" fill="#000000">input</text>
<text text-anchor="middle" x="225.62" y="-249.7" font-family="Times,serif" font-size="14.00" fill="#000000">0x107500990</text>
<polyline fill="none" stroke="#b6aa05" points="127,-242.5 324.25,-242.5"/>
<text text-anchor="middle" x="225.62" y="-225.2" font-family="Times,serif" font-size="14.00" fill="#000000">TYPE: KEYWORD</text>
<polyline fill="none" stroke="#b6aa05" points="127,-218 324.25,-218"/>
<text text-anchor="middle" x="153.75" y="-200.7" font-family="Times,serif" font-size="14.00" fill="#000000">Left</text>
<text text-anchor="middle" x="153.75" y="-184.2" font-family="Times,serif" font-size="14.00" fill="#000000">NONE</text>
<text text-anchor="middle" x="153.75" y="-167.7" font-family="Times,serif" font-size="14.00" fill="#000000">0x0</text>
<polyline fill="none" stroke="#b6aa05" points="180.5,-160.5 180.5,-218"/>
<text text-anchor="middle" x="225.62" y="-200.7" font-family="Times,serif" font-size="14.00" fill="#000000">Parent</text>
<text text-anchor="middle" x="225.62" y="-184.2" font-family="Times,serif" font-size="14.00" fill="#000000">=</text>
<text text-anchor="middle" x="225.62" y="-167.7" font-family="Times,serif" font-size="14.00" fill="#000000">0x107500910</text>
<polyline fill="none" stroke="#b6aa05" points="270.75,-160.5 270.75,-218"/>
<text text-anchor="middle" x="297.5" y="-200.7" font-family="Times,serif" font-size="14.00" fill="#000000">Right</text>
<text text-anchor="middle" x="297.5" y="-184.2" font-family="Times,serif" font-size="14.00" fill="#000000">NONE</text>
<text text-anchor="middle" x="297.5" y="-167.7" font-family="Times,serif" font-size="14.00" fill="#000000">0x0</text>
</g>
<!-- node0x107500910&#45;&gt;node0x107500990 -->
<g id="edge6" class="edge">
<title>node0x107500910:left&#45;&gt;node0x107500990</title>
<path fill="none" stroke="#187ae8" stroke-width="2" d="M260.38,-320C260.38,-311.67 259.22,-303.15 257.34,-294.8"/>
<polygon fill="#187ae8" stroke="#187ae8" stroke-width="2" points="261.18,-295.65 255.25,-286.87 254.42,-297.44 261.18,-295.65"/>
</g>
<!-- node0x1075009d0 -->
<g id="node11" class="node">
<title>node0x1075009d0</title>
<path fill="#d5cfe1" stroke="#8797b2" d="M354,-160.5C354,-160.5 527.25,-160.5 527.25,-160.5 533.25,-160.5 539.25,-166.5 539.25,-172.5 539.25,-172.5 539.25,-271.5 539.25,-271.5 539.25,-277.5 533.25,-283.5 527.25,-283.5 527.25,-283.5 354,-283.5 354,-283.5 348,-283.5 342,-277.5 342,-271.5 342,-271.5 342,-172.5 342,-172.5 342,-166.5 348,-160.5 354,-160.5"/>
<text text-anchor="middle" x="440.62" y="-266.2" font-family="Times,serif" font-size="14.00" fill="#000000">a</text>
<text text-anchor="middle" x="440.62" y="-249.7" font-family="Times,serif" font-size="14.00" fill="#000000">0x1075009d0</text>
<polyline fill="none" stroke="#8797b2" points="342,-242.5 539.25,-242.5"/>
<text text-anchor="middle" x="440.62" y="-225.2" font-family="Times,serif" font-size="14.00" fill="#000000">TYPE: IDENTIFIER</text>
<polyline fill="none" stroke="#8797b2" points="342,-218 539.25,-218"/>
<text text-anchor="middle" x="368.75" y="-200.7" font-family="Times,serif" font-size="14.00" fill="#000000">Left</text>
<text text-anchor="middle" x="368.75" y="-184.2" font-family="Times,serif" font-size="14.00" fill="#000000">NONE</text>
<text text-anchor="middle" x="368.75" y="-167.7" font-family="Times,serif" font-size="14.00" fill="#000000">0x0</text>
<polyline fill="none" stroke="#8797b2" points="395.5,-160.5 395.5,-218"/>
<text text-anchor="middle" x="440.62" y="-200.7" font-family="Times,serif" font-size="14.00" fill="#000000">Parent</text>
<text text-anchor="middle" x="440.62" y="-184.2" font-family="Times,serif" font-size="14.00" fill="#000000">=</text>
<text text-anchor="middle" x="440.62" y="-167.7" font-family="Times,serif" font-size="14.00" fill="#000000">0x107500910</text>
<polyline fill="none" stroke="#8797b2" points="485.75,-160.5 485.75,-218"/>
<text text-anchor="middle" x="512.5" y="-200.7" font-family="Times,serif" font-size="14.00" fill="#000000">Right</text>
<text text-anchor="middle" x="512.5" y="-184.2" font-family="Times,serif" font-size="14.00" fill="#000000">NONE</text>
<text text-anchor="middle" x="512.5" y="-167.7" font-family="Times,serif" font-size="14.00" fill="#000000">0x0</text>
</g>
<!-- node0x107500910&#45;&gt;node0x1075009d0 -->
<g id="edge7" class="edge">
<title>node0x107500910:right&#45;&gt;node0x1075009d0</title>
<path fill="none" stroke="#48e818" stroke-width="2" d="M440.88,-320C440.88,-311.95 440.87,-303.53 440.85,-295.15"/>
<polygon fill="#48e818" stroke="#48e818" stroke-width="2" points="444.36,-296.82 440.84,-286.83 437.36,-296.83 444.36,-296.82"/>
</g>
<!-- node0x107500790 -->
<g id="node13" class="node">
<title>node0x107500790</title>
<path fill="#f8e807" stroke="#b6aa05" d="M516.62,-320.5C516.62,-320.5 726.62,-320.5 726.62,-320.5 732.62,-320.5 738.62,-326.5 738.62,-332.5 738.62,-332.5 738.62,-431.5 738.62,-431.5 738.62,-437.5 732.62,-443.5 726.62,-443.5 726.62,-443.5 516.62,-443.5 516.62,-443.5 510.62,-443.5 504.62,-437.5 504.62,-431.5 504.62,-431.5 504.62,-332.5 504.62,-332.5 504.62,-326.5 510.62,-320.5 516.62,-320.5"/>
<text text-anchor="middle" x="621.62" y="-426.2" font-family="Times,serif" font-size="14.00" fill="#000000">printf</text>
<text text-anchor="middle" x="621.62" y="-409.7" font-family="Times,serif" font-size="14.00" fill="#000000">0x107500790</text>
<polyline fill="none" stroke="#b6aa05" points="504.62,-402.5 738.62,-402.5"/>
<text text-anchor="middle" x="621.62" y="-385.2" font-family="Times,serif" font-size="14.00" fill="#000000">TYPE: KEYWORD</text>
<polyline fill="none" stroke="#b6aa05" points="504.62,-378 738.62,-378"/>
<text text-anchor="middle" x="531.38" y="-360.7" font-family="Times,serif" font-size="14.00" fill="#000000">Left</text>
<text text-anchor="middle" x="531.38" y="-344.2" font-family="Times,serif" font-size="14.00" fill="#000000">NONE</text>
<text text-anchor="middle" x="531.38" y="-327.7" font-family="Times,serif" font-size="14.00" fill="#000000">0x0</text>
<polyline fill="none" stroke="#b6aa05" points="558.12,-320.5 558.12,-378"/>
<text text-anchor="middle" x="603.25" y="-360.7" font-family="Times,serif" font-size="14.00" fill="#000000">Parent</text>
<text text-anchor="middle" x="603.25" y="-344.2" font-family="Times,serif" font-size="14.00" fill="#000000">;</text>
<text text-anchor="middle" x="603.25" y="-327.7" font-family="Times,serif" font-size="14.00" fill="#000000">0x107500750</text>
<polyline fill="none" stroke="#b6aa05" points="648.38,-320.5 648.38,-378"/>
<text text-anchor="middle" x="693.5" y="-360.7" font-family="Times,serif" font-size="14.00" fill="#000000">Right</text>
<text text-anchor="middle" x="693.5" y="-344.2" font-family="Times,serif" font-size="14.00" fill="#000000">+</text>
<text text-anchor="middle" x="693.5" y="-327.7" font-family="Times,serif" font-size="14.00" fill="#000000">0x1075007d0</text>
</g>
<!-- node0x107500750&#45;&gt;node0x107500790 -->
<g id="edge9" class="edge">
<title>node0x107500750:left&#45;&gt;node0x107500790</title>
<path fill="none" stroke="#187ae8" stroke-width="2" d="M621.38,-480C621.38,-471.95 621.38,-463.53 621.4,-455.15"/>
<polygon fill="#187ae8" stroke="#187ae8" stroke-width="2" points="624.89,-456.83 621.41,-446.83 617.89,-456.82 624.89,-456.83"/>
</g>
<!-- node0x107500690 -->
<g id="node17" class="node">
<title>node0x107500690</title>
<path fill="#f8e807" stroke="#b6aa05" d="M848.62,-320.5C848.62,-320.5 1058.62,-320.5 1058.62,-320.5 1064.62,-320.5 1070.62,-326.5 1070.62,-332.5 1070.62,-332.5 1070.62,-431.5 1070.62,-431.5 1070.62,-437.5 1064.62,-443.5 1058.62,-443.5 1058.62,-443.5 848.62,-443.5 848.62,-443.5 842.62,-443.5 836.62,-437.5 836.62,-431.5 836.62,-431.5 836.62,-332.5 836.62,-332.5 836.62,-326.5 842.62,-320.5 848.62,-320.5"/>
<text text-anchor="middle" x="953.62" y="-426.2" font-family="Times,serif" font-size="14.00" fill="#000000">;</text>
<text text-anchor="middle" x="953.62" y="-409.7" font-family="Times,serif" font-size="14.00" fill="#000000">0x107500690</text>
<polyline fill="none" stroke="#b6aa05" points="836.62,-402.5 1070.62,-402.5"/>
<text text-anchor="middle" x="953.62" y="-385.2" font-family="Times,serif" font-size="14.00" fill="#000000">TYPE: KEYWORD</text>
<polyline fill="none" stroke="#b6aa05" points="836.62,-378 1070.62,-378"/>
<text text-anchor="middle" x="881.75" y="-360.7" font-family="Times,serif" font-size="14.00" fill="#000000">Left</text>
<text text-anchor="middle" x="881.75" y="-344.2" font-family="Times,serif" font-size="14.00" fill="#000000">return</text>
<text text-anchor="middle" x="881.75" y="-327.7" font-family="Times,serif" font-size="14.00" fill="#000000">0x1075006d0</text>
<polyline fill="none" stroke="#b6aa05" points="926.88,-320.5 926.88,-378"/>
<text text-anchor="middle" x="972" y="-360.7" font-family="Times,serif" font-size="14.00" fill="#000000">Parent</text>
<text text-anchor="middle" x="972" y="-344.2" font-family="Times,serif" font-size="14.00" fill="#000000">;</text>
<text text-anchor="middle" x="972" y="-327.7" font-family="Times,serif" font-size="14.00" fill="#000000">0x107500750</text>
<polyline fill="none" stroke="#b6aa05" points="1017.12,-320.5 1017.12,-378"/>
<text text-anchor="middle" x="1043.88" y="-360.7" font-family="Times,serif" font-size="14.00" fill="#000000">Right</text>
<text text-anchor="middle" x="1043.88" y="-344.2" font-family="Times,serif" font-size="14.00" fill="#000000">NONE</text>
<text text-anchor="middle" x="1043.88" y="-327.7" font-family="Times,serif" font-size="14.00" fill="#000000">0x0</text>
</g>
<!-- node0x107500750&#45;&gt;node0x107500690 -->
<g id="edge15" class="edge">
<title>node0x107500750:right&#45;&gt;node0x107500690</title>
<path fill="none" stroke="#48e818" stroke-width="2" d="M848,-509.25C881.63,-509.25 906.67,-482.56 923.9,-453.73"/>
<polygon fill="#48e818" stroke="#48e818" stroke-width="2" points="926.09,-456.97 927.96,-446.54 919.99,-453.53 926.09,-456.97"/>
</g>
<!-- node0x1075007d0 -->
<g id="node14" class="node">
<title>node0x1075007d0</title>
<path fill="#f8e807" stroke="#b6aa05" d="M569.25,-160.5C569.25,-160.5 816,-160.5 816,-160.5 822,-160.5 828,-166.5 828,-172.5 828,-172.5 828,-271.5 828,-271.5 828,-277.5 822,-283.5 816,-283.5 816,-283.5 569.25,-283.5 569.25,-283.5 563.25,-283.5 557.25,-277.5 557.25,-271.5 557.25,-271.5 557.25,-172.5 557.25,-172.5 557.25,-166.5 563.25,-160.5 569.25,-160.5"/>
<text text-anchor="middle" x="692.62" y="-266.2" font-family="Times,serif" font-size="14.00" fill="#000000">+</text>
<text text-anchor="middle" x="692.62" y="-249.7" font-family="Times,serif" font-size="14.00" fill="#000000">0x1075007d0</text>
<polyline fill="none" stroke="#b6aa05" points="557.25,-242.5 828,-242.5"/>
<text text-anchor="middle" x="692.62" y="-225.2" font-family="Times,serif" font-size="14.00" fill="#000000">TYPE: KEYWORD</text>
<polyline fill="none" stroke="#b6aa05" points="557.25,-218 828,-218"/>
<text text-anchor="middle" x="602.38" y="-200.7" font-family="Times,serif" font-size="14.00" fill="#000000">Left</text>
<text text-anchor="middle" x="602.38" y="-184.2" font-family="Times,serif" font-size="14.00" fill="#000000">a</text>
<text text-anchor="middle" x="602.38" y="-167.7" font-family="Times,serif" font-size="14.00" fill="#000000">0x107500850</text>
<polyline fill="none" stroke="#b6aa05" points="647.5,-160.5 647.5,-218"/>
<text text-anchor="middle" x="692.62" y="-200.7" font-family="Times,serif" font-size="14.00" fill="#000000">Parent</text>
<text text-anchor="middle" x="692.62" y="-184.2" font-family="Times,serif" font-size="14.00" fill="#000000">printf</text>
<text text-anchor="middle" x="692.62" y="-167.7" font-family="Times,serif" font-size="14.00" fill="#000000">0x107500790</text>
<polyline fill="none" stroke="#b6aa05" points="737.75,-160.5 737.75,-218"/>
<text text-anchor="middle" x="782.88" y="-200.7" font-family="Times,serif" font-size="14.00" fill="#000000">Right</text>
<text text-anchor="middle" x="782.88" y="-184.2" font-family="Times,serif" font-size="14.00" fill="#000000">10</text>
<text text-anchor="middle" x="782.88" y="-167.7" font-family="Times,serif" font-size="14.00" fill="#000000">0x107500810</text>
</g>
<!-- node0x107500790&#45;&gt;node0x1075007d0 -->
<g id="edge12" class="edge">
<title>node0x107500790:right&#45;&gt;node0x1075007d0</title>
<path fill="none" stroke="#48e818" stroke-width="2" d="M693.5,-320C693.5,-311.95 693.47,-303.53 693.42,-295.15"/>
<polygon fill="#48e818" stroke="#48e818" stroke-width="2" points="696.93,-296.8 693.36,-286.83 689.93,-296.85 696.93,-296.8"/>
</g>
<!-- node0x107500850 -->
<g id="node15" class="node">
<title>node0x107500850</title>
<path fill="#d5cfe1" stroke="#8797b2" d="M498,-0.5C498,-0.5 671.25,-0.5 671.25,-0.5 677.25,-0.5 683.25,-6.5 683.25,-12.5 683.25,-12.5 683.25,-111.5 683.25,-111.5 683.25,-117.5 677.25,-123.5 671.25,-123.5 671.25,-123.5 498,-123.5 498,-123.5 492,-123.5 486,-117.5 486,-111.5 486,-111.5 486,-12.5 486,-12.5 486,-6.5 492,-0.5 498,-0.5"/>
<text text-anchor="middle" x="584.62" y="-106.2" font-family="Times,serif" font-size="14.00" fill="#000000">a</text>
<text text-anchor="middle" x="584.62" y="-89.7" font-family="Times,serif" font-size="14.00" fill="#000000">0x107500850</text>
<polyline fill="none" stroke="#8797b2" points="486,-82.5 683.25,-82.5"/>
<text text-anchor="middle" x="584.62" y="-65.2" font-family="Times,serif" font-size="14.00" fill="#000000">TYPE: IDENTIFIER</text>
<polyline fill="none" stroke="#8797b2" points="486,-58 683.25,-58"/>
<text text-anchor="middle" x="512.75" y="-40.7" font-family="Times,serif" font-size="14.00" fill="#000000">Left</text>
<text text-anchor="middle" x="512.75" y="-24.2" font-family="Times,serif" font-size="14.00" fill="#000000">NONE</text>
<text text-anchor="middle" x="512.75" y="-7.7" font-family="Times,serif" font-size="14.00" fill="#000000">0x0</text>
<polyline fill="none" stroke="#8797b2" points="539.5,-0.5 539.5,-58"/>
<text text-anchor="middle" x="584.62" y="-40.7" font-family="Times,serif" font-size="14.00" fill="#000000">Parent</text>
<text text-anchor="middle" x="584.62" y="-24.2" font-family="Times,serif" font-size="14.00" fill="#000000">+</text>
<text text-anchor="middle" x="584.62" y="-7.7" font-family="Times,serif" font-size="14.00" fill="#000000">0x1075007d0</text>
<polyline fill="none" stroke="#8797b2" points="629.75,-0.5 629.75,-58"/>
<text text-anchor="middle" x="656.5" y="-40.7" font-family="Times,serif" font-size="14.00" fill="#000000">Right</text>
<text text-anchor="middle" x="656.5" y="-24.2" font-family="Times,serif" font-size="14.00" fill="#000000">NONE</text>
<text text-anchor="middle" x="656.5" y="-7.7" font-family="Times,serif" font-size="14.00" fill="#000000">0x0</text>
</g>
<!-- node0x1075007d0&#45;&gt;node0x107500850 -->
<g id="edge10" class="edge">
<title>node0x1075007d0:left&#45;&gt;node0x107500850</title>
<path fill="none" stroke="#187ae8" stroke-width="2" d="M602.38,-160C602.38,-151.88 601.77,-143.44 600.77,-135.07"/>
<polygon fill="#187ae8" stroke="#187ae8" stroke-width="2" points="604.46,-136.17 599.62,-126.75 597.53,-137.13 604.46,-136.17"/>
</g>
<!-- node0x107500810 -->
<g id="node16" class="node">
<title>node0x107500810</title>
<path fill="#bdef9e" stroke="#74af80" d="M713,-0.5C713,-0.5 886.25,-0.5 886.25,-0.5 892.25,-0.5 898.25,-6.5 898.25,-12.5 898.25,-12.5 898.25,-111.5 898.25,-111.5 898.25,-117.5 892.25,-123.5 886.25,-123.5 886.25,-123.5 713,-123.5 713,-123.5 707,-123.5 701,-117.5 701,-111.5 701,-111.5 701,-12.5 701,-12.5 701,-6.5 707,-0.5 713,-0.5"/>
<text text-anchor="middle" x="799.62" y="-106.2" font-family="Times,serif" font-size="14.00" fill="#000000">10</text>
<text text-anchor="middle" x="799.62" y="-89.7" font-family="Times,serif" font-size="14.00" fill="#000000">0x107500810</text>
<polyline fill="none" stroke="#74af80" points="701,-82.5 898.25,-82.5"/>
<text text-anchor="middle" x="799.62" y="-65.2" font-family="Times,serif" font-size="14.00" fill="#000000">TYPE: NUMBER</text>
<polyline fill="none" stroke="#74af80" points="701,-58 898.25,-58"/>
<text text-anchor="middle" x="727.75" y="-40.7" font-family="Times,serif" font-size="14.00" fill="#000000">Left</text>
<text text-anchor="middle" x="727.75" y="-24.2" font-family="Times,serif" font-size="14.00" fill="#000000">NONE</text>
<text text-anchor="middle" x="727.75" y="-7.7" font-family="Times,serif" font-size="14.00" fill="#000000">0x0</text>
<polyline fill="none" stroke="#74af80" points="754.5,-0.5 754.5,-58"/>
<text text-anchor="middle" x="799.62" y="-40.7" font-family="Times,serif" font-size="14.00" fill="#000000">Parent</text>
<text text-anchor="middle" x="799.62" y="-24.2" font-family="Times,serif" font-size="14.00" fill="#000000">+</text>
<text text-anchor="middle" x="799.62" y="-7.7" font-family="Times,serif" font-size="14.00" fill="#000000">0x1075007d0</text>
<polyline fill="none" stroke="#74af80" points="844.75,-0.5 844.75,-58"/>
<text text-anchor="middle" x="871.5" y="-40.7" font-family="Times,serif" font-size="14.00" fill="#000000">Right</text>
<text text-anchor="middle" x="871.5" y="-24.2" font-family="Times,serif" font-size="14.00" fill="#000000">NONE</text>
<text text-anchor="middle" x="871.5" y="-7.7" font-family="Times,serif" font-size="14.00" fill="#000000">0x0</text>
</g>
<!-- node0x1075007d0&#45;&gt;node0x107500810 -->
<g id="edge11" class="edge">
<title>node0x1075007d0:right&#45;&gt;node0x107500810</title>
<path fill="none" stroke="#48e818" stroke-width="2" d="M782.88,-160C782.88,-151.89 783.45,-143.46 784.39,-135.1"/>
<polygon fill="#48e818" stroke="#48e818" stroke-width="2" points="787.65,-137.15 785.48,-126.78 780.71,-136.24 787.65,-137.15"/>
</g>
<!-- node0x1075006d0 -->
<g id="node18" class="node">
<title>node0x1075006d0</title>
<path fill="#f8e807" stroke="#b6aa05" d="M857.62,-160.5C857.62,-160.5 1067.62,-160.5 1067.62,-160.5 1073.62,-160.5 1079.62,-166.5 1079.62,-172.5 1079.62,-172.5 1079.62,-271.5 1079.62,-271.5 1079.62,-277.5 1073.62,-283.5 1067.62,-283.5 1067.62,-283.5 857.62,-283.5 857.62,-283.5 851.62,-283.5 845.62,-277.5 845.62,-271.5 845.62,-271.5 845.62,-172.5 845.62,-172.5 845.62,-166.5 851.62,-160.5 857.62,-160.5"/>
<text text-anchor="middle" x="962.62" y="-266.2" font-family="Times,serif" font-size="14.00" fill="#000000">return</text>
<text text-anchor="middle" x="962.62" y="-249.7" font-family="Times,serif" font-size="14.00" fill="#000000">0x1075006d0</text>
<polyline fill="none" stroke="#b6aa05" points="845.62,-242.5 1079.62,-242.5"/>
<text text-anchor="middle" x="962.62" y="-225.2" font-family="Times,serif" font-size="14.00" fill="#000000">TYPE: KEYWORD</text>
<polyline fill="none" stroke="#b6aa05" points="845.62,-218 1079.62,-218"/>
<text text-anchor="middle" x="872.38" y="-200.7" font-family="Times,serif" font-size="14.00" fill="#000000">Left</text>
<text text-anchor="middle" x="872.38" y="-184.2" font-family="Times,serif" font-size="14.00" fill="#000000">NONE</text>
<text text-anchor="middle" x="872.38" y="-167.7" font-family="Times,serif" font-size="14.00" fill="#000000">0x0</text>
<polyline fill="none" stroke="#b6aa05" points="899.12,-160.5 899.12,-218"/>
<text text-anchor="middle" x="944.25" y="-200.7" font-family="Times,serif" font-size="14.00" fill="#000000">Parent</text>
<text text-anchor="middle" x="944.25" y="-184.2" font-family="Times,serif" font-size="14.00" fill="#000000">;</text>
<text text-anchor="middle" x="944.25" y="-167.7" font-family="Times,serif" font-size="14.00" fill="#000000">0x107500690</text>
<polyline fill="none" stroke="#b6aa05" points="989.38,-160.5 989.38,-218"/>
<text text-anchor="middle" x="1034.5" y="-200.7" font-family="Times,serif" font-size="14.00" fill="#000000">Right</text>
<text text-anchor="middle" x="1034.5" y="-184.2" font-family="Times,serif" font-size="14.00" fill="#000000">0</text>
<text text-anchor="middle" x="1034.5" y="-167.7" font-family="Times,serif" font-size="14.00" fill="#000000">0x107500710</text>
</g>
<!-- node0x107500690&#45;&gt;node0x1075006d0 -->
<g id="edge13" class="edge">
<title>node0x107500690:left&#45;&gt;node0x1075006d0</title>
<path fill="none" stroke="#187ae8" stroke-width="2" d="M881.75,-320C881.75,-310.9 883.87,-302.21 887.43,-294.02"/>
<polygon fill="#187ae8" stroke="#187ae8" stroke-width="2" points="889.77,-297.11 891.27,-286.62 883.56,-293.89 889.77,-297.11"/>
</g>
<!-- node0x107500710 -->
<g id="node19" class="node">
<title>node0x107500710</title>
<path fill="#bdef9e" stroke="#74af80" d="M947,-0.5C947,-0.5 1120.25,-0.5 1120.25,-0.5 1126.25,-0.5 1132.25,-6.5 1132.25,-12.5 1132.25,-12.5 1132.25,-111.5 1132.25,-111.5 1132.25,-117.5 1126.25,-123.5 1120.25,-123.5 1120.25,-123.5 947,-123.5 947,-123.5 941,-123.5 935,-117.5 935,-111.5 935,-111.5 935,-12.5 935,-12.5 935,-6.5 941,-0.5 947,-0.5"/>
<text text-anchor="middle" x="1033.62" y="-106.2" font-family="Times,serif" font-size="14.00" fill="#000000">0</text>
<text text-anchor="middle" x="1033.62" y="-89.7" font-family="Times,serif" font-size="14.00" fill="#000000">0x107500710</text>
<polyline fill="none" stroke="#74af80" points="935,-82.5 1132.25,-82.5"/>
<text text-anchor="middle" x="1033.62" y="-65.2" font-family="Times,serif" font-size="14.00" fill="#000000">TYPE: NUMBER</text>
<polyline fill="none" stroke="#74af80" points="935,-58 1132.25,-58"/>
<text text-anchor="middle" x="961.75" y="-40.7" font-family="Times,serif" font-size="14.00" fill="#000000">Left</text>
<text text-anchor="middle" x="961.75" y="-24.2" font-family="Times,serif" font-size="14.00" fill="#000000">NONE</text>
<text text-anchor="middle" x="961.75" y="-7.7" font-family="Times,serif" font-size="14.00" fill="#000000">0x0</text>
<polyline fill="none" stroke="#74af80" points="988.5,-0.5 988.5,-58"/>
<text text-anchor="middle" x="1033.62" y="-40.7" font-family="Times,serif" font-size="14.00" fill="#000000">Parent</text>
<text text-anchor="middle" x="1033.62" y="-24.2" font-family="Times,serif" font-size="14.00" fill="#000000">return</text>
<text text-anchor="middle" x="1033.62" y="-7.7" font-family="Times,serif" font-size="14.00" fill="#000000">0x1075006d0</text>
<polyline fill="none" stroke="#74af80" points="1078.75,-0.5 1078.75,-58"/>
<text text-anchor="middle" x="1105.5" y="-40.7" font-family="Times,serif" font-size="14.00" fill="#000000">Right</text>
<text text-anchor="middle" x="1105.5" y="-24.2" font-family="Times,serif" font-size="14.00" fill="#000000">NONE</text>
<text text-anchor="middle" x="1105.5" y="-7.7" font-family="Times,serif" font-size="14.00" fill="#000000">0x0</text>
</g>
<!-- node0x1075006d0&#45;&gt;node0x107500710 -->
<g id="edge14" class="edge">
<title>node0x1075006d0:right&#45;&gt;node0x107500710</title>
<path fill="none" stroke="#48e818" stroke-width="2" d="M1034.5,-160C1034.5,-151.95 1034.47,-143.53 1034.42,-135.15"/>
<polygon fill="#48e818" stroke="#48e818" stroke-width="2" points="1037.93,-136.8 1034.36,-126.83 1030.93,-136.85 1037.93,-136.8"/>
</g>
</g>
</svg>
