<?xml version="1.0" encoding="UTF-8" standalone="no"?>
<!DOCTYPE svg PUBLIC "-//W3C//DTD SVG 1.1//EN"
 "http://www.w3.org/Graphics/SVG/1.1/DTD/svg11.dtd">
<!-- Generated by graphviz version 12.2.0 (20241103.1931)
 -->
<!-- Pages: 1 -->
<svg width="1136pt" height="1252pt"
 viewBox="0.00 0.00 1135.50 1252.00" xmlns="http://www.w3.org/2000/svg" xmlns:xlink="http://www.w3.org/1999/xlink">
<g id="graph0" class="graph" transform="scale(1 1) rotate(0) translate(4 1248)">
<polygon fill="#dcdcdc" stroke="none" points="-4,4 -4,-1248 1131.5,-1248 1131.5,4 -4,4"/>
<!-- node0x103c00b50 -->
<g id="node1" class="node">
<title>node0x103c00b50</title>
<path fill="#f8e807" stroke="#b6aa05" d="M197,-1120.5C197,-1120.5 369.5,-1120.5 369.5,-1120.5 375.5,-1120.5 381.5,-1126.5 381.5,-1132.5 381.5,-1132.5 381.5,-1231.5 381.5,-1231.5 381.5,-1237.5 375.5,-1243.5 369.5,-1243.5 369.5,-1243.5 197,-1243.5 197,-1243.5 191,-1243.5 185,-1237.5 185,-1231.5 185,-1231.5 185,-1132.5 185,-1132.5 185,-1126.5 191,-1120.5 197,-1120.5"/>
<text text-anchor="middle" x="283.25" y="-1226.2" font-family="Times,serif" font-size="14.00" fill="#000000">;</text>
<text text-anchor="middle" x="283.25" y="-1209.7" font-family="Times,serif" font-size="14.00" fill="#000000">0x103c00b50</text>
<polyline fill="none" stroke="#b6aa05" points="185,-1202.5 381.5,-1202.5"/>
<text text-anchor="middle" x="283.25" y="-1185.2" font-family="Times,serif" font-size="14.00" fill="#000000">TYPE: KEYWORD</text>
<polyline fill="none" stroke="#b6aa05" points="185,-1178 381.5,-1178"/>
<text text-anchor="middle" x="229.75" y="-1160.7" font-family="Times,serif" font-size="14.00" fill="#000000">Left</text>
<text text-anchor="middle" x="229.75" y="-1144.2" font-family="Times,serif" font-size="14.00" fill="#000000">main</text>
<text text-anchor="middle" x="229.75" y="-1127.7" font-family="Times,serif" font-size="14.00" fill="#000000">0x103c00b10</text>
<polyline fill="none" stroke="#b6aa05" points="274.5,-1120.5 274.5,-1178"/>
<text text-anchor="middle" x="301.25" y="-1160.7" font-family="Times,serif" font-size="14.00" fill="#000000">Parent</text>
<text text-anchor="middle" x="301.25" y="-1144.2" font-family="Times,serif" font-size="14.00" fill="#000000">NONE</text>
<text text-anchor="middle" x="301.25" y="-1127.7" font-family="Times,serif" font-size="14.00" fill="#000000">0x0</text>
<polyline fill="none" stroke="#b6aa05" points="328,-1120.5 328,-1178"/>
<text text-anchor="middle" x="354.75" y="-1160.7" font-family="Times,serif" font-size="14.00" fill="#000000">Right</text>
<text text-anchor="middle" x="354.75" y="-1144.2" font-family="Times,serif" font-size="14.00" fill="#000000">NONE</text>
<text text-anchor="middle" x="354.75" y="-1127.7" font-family="Times,serif" font-size="14.00" fill="#000000">0x0</text>
</g>
<!-- node0x103c00b10 -->
<g id="node2" class="node">
<title>node0x103c00b10</title>
<path fill="#8ee3ef" stroke="#37718e" d="M100.12,-960.5C100.12,-960.5 360.38,-960.5 360.38,-960.5 366.38,-960.5 372.38,-966.5 372.38,-972.5 372.38,-972.5 372.38,-1071.5 372.38,-1071.5 372.38,-1077.5 366.38,-1083.5 360.38,-1083.5 360.38,-1083.5 100.13,-1083.5 100.13,-1083.5 94.12,-1083.5 88.12,-1077.5 88.12,-1071.5 88.12,-1071.5 88.12,-972.5 88.12,-972.5 88.12,-966.5 94.12,-960.5 100.12,-960.5"/>
<text text-anchor="middle" x="230.25" y="-1066.2" font-family="Times,serif" font-size="14.00" fill="#000000">main</text>
<text text-anchor="middle" x="230.25" y="-1049.7" font-family="Times,serif" font-size="14.00" fill="#000000">0x103c00b10</text>
<polyline fill="none" stroke="#37718e" points="88.12,-1042.5 372.38,-1042.5"/>
<text text-anchor="middle" x="230.25" y="-1025.2" font-family="Times,serif" font-size="14.00" fill="#000000">TYPE: FUNCTION_DEFINITION</text>
<polyline fill="none" stroke="#37718e" points="88.12,-1018 372.38,-1018"/>
<text text-anchor="middle" x="132.5" y="-1000.7" font-family="Times,serif" font-size="14.00" fill="#000000">Left</text>
<text text-anchor="middle" x="132.5" y="-984.2" font-family="Times,serif" font-size="14.00" fill="#000000">double</text>
<text text-anchor="middle" x="132.5" y="-967.7" font-family="Times,serif" font-size="14.00" fill="#000000">0x103c00ad0</text>
<polyline fill="none" stroke="#37718e" points="176.88,-960.5 176.88,-1018"/>
<text text-anchor="middle" x="221.62" y="-1000.7" font-family="Times,serif" font-size="14.00" fill="#000000">Parent</text>
<text text-anchor="middle" x="221.62" y="-984.2" font-family="Times,serif" font-size="14.00" fill="#000000">;</text>
<text text-anchor="middle" x="221.62" y="-967.7" font-family="Times,serif" font-size="14.00" fill="#000000">0x103c00b50</text>
<polyline fill="none" stroke="#37718e" points="266.38,-960.5 266.38,-1018"/>
<text text-anchor="middle" x="319.38" y="-1000.7" font-family="Times,serif" font-size="14.00" fill="#000000">Right</text>
<text text-anchor="middle" x="319.38" y="-984.2" font-family="Times,serif" font-size="14.00" fill="#000000">PARAMETERS</text>
<text text-anchor="middle" x="319.38" y="-967.7" font-family="Times,serif" font-size="14.00" fill="#000000">0x103c00a90</text>
</g>
<!-- node0x103c00b50&#45;&gt;node0x103c00b10 -->
<g id="edge1" class="edge">
<title>node0x103c00b50:left&#45;&gt;node0x103c00b10</title>
<path fill="none" stroke="#187ae8" stroke-width="2" d="M229.75,-1120C229.75,-1111.95 229.77,-1103.53 229.8,-1095.15"/>
<polygon fill="#187ae8" stroke="#187ae8" stroke-width="2" points="233.29,-1096.84 229.83,-1086.83 226.29,-1096.81 233.29,-1096.84"/>
</g>
<!-- node0x103c00ad0 -->
<g id="node3" class="node">
<title>node0x103c00ad0</title>
<path fill="#f8e807" stroke="#b6aa05" d="M15,-800.5C15,-800.5 187.5,-800.5 187.5,-800.5 193.5,-800.5 199.5,-806.5 199.5,-812.5 199.5,-812.5 199.5,-911.5 199.5,-911.5 199.5,-917.5 193.5,-923.5 187.5,-923.5 187.5,-923.5 15,-923.5 15,-923.5 9,-923.5 3,-917.5 3,-911.5 3,-911.5 3,-812.5 3,-812.5 3,-806.5 9,-800.5 15,-800.5"/>
<text text-anchor="middle" x="101.25" y="-906.2" font-family="Times,serif" font-size="14.00" fill="#000000">double</text>
<text text-anchor="middle" x="101.25" y="-889.7" font-family="Times,serif" font-size="14.00" fill="#000000">0x103c00ad0</text>
<polyline fill="none" stroke="#b6aa05" points="3,-882.5 199.5,-882.5"/>
<text text-anchor="middle" x="101.25" y="-865.2" font-family="Times,serif" font-size="14.00" fill="#000000">TYPE: KEYWORD</text>
<polyline fill="none" stroke="#b6aa05" points="3,-858 199.5,-858"/>
<text text-anchor="middle" x="29.75" y="-840.7" font-family="Times,serif" font-size="14.00" fill="#000000">Left</text>
<text text-anchor="middle" x="29.75" y="-824.2" font-family="Times,serif" font-size="14.00" fill="#000000">NONE</text>
<text text-anchor="middle" x="29.75" y="-807.7" font-family="Times,serif" font-size="14.00" fill="#000000">0x0</text>
<polyline fill="none" stroke="#b6aa05" points="56.5,-800.5 56.5,-858"/>
<text text-anchor="middle" x="101.25" y="-840.7" font-family="Times,serif" font-size="14.00" fill="#000000">Parent</text>
<text text-anchor="middle" x="101.25" y="-824.2" font-family="Times,serif" font-size="14.00" fill="#000000">main</text>
<text text-anchor="middle" x="101.25" y="-807.7" font-family="Times,serif" font-size="14.00" fill="#000000">0x103c00b10</text>
<polyline fill="none" stroke="#b6aa05" points="146,-800.5 146,-858"/>
<text text-anchor="middle" x="172.75" y="-840.7" font-family="Times,serif" font-size="14.00" fill="#000000">Right</text>
<text text-anchor="middle" x="172.75" y="-824.2" font-family="Times,serif" font-size="14.00" fill="#000000">NONE</text>
<text text-anchor="middle" x="172.75" y="-807.7" font-family="Times,serif" font-size="14.00" fill="#000000">0x0</text>
</g>
<!-- node0x103c00b10&#45;&gt;node0x103c00ad0 -->
<g id="edge2" class="edge">
<title>node0x103c00b10:left&#45;&gt;node0x103c00ad0</title>
<path fill="none" stroke="#187ae8" stroke-width="2" d="M132.5,-960C132.5,-951.79 131.47,-943.37 129.79,-935.08"/>
<polygon fill="#187ae8" stroke="#187ae8" stroke-width="2" points="133.55,-935.76 127.83,-926.84 126.74,-937.38 133.55,-935.76"/>
</g>
<!-- node0x103c00a90 -->
<g id="node4" class="node">
<title>node0x103c00a90</title>
<path fill="#ebcbf4" stroke="#c986c3" d="M229.75,-800.5C229.75,-800.5 472.75,-800.5 472.75,-800.5 478.75,-800.5 484.75,-806.5 484.75,-812.5 484.75,-812.5 484.75,-911.5 484.75,-911.5 484.75,-917.5 478.75,-923.5 472.75,-923.5 472.75,-923.5 229.75,-923.5 229.75,-923.5 223.75,-923.5 217.75,-917.5 217.75,-911.5 217.75,-911.5 217.75,-812.5 217.75,-812.5 217.75,-806.5 223.75,-800.5 229.75,-800.5"/>
<text text-anchor="middle" x="351.25" y="-906.2" font-family="Times,serif" font-size="14.00" fill="#000000">PARAMETERS</text>
<text text-anchor="middle" x="351.25" y="-889.7" font-family="Times,serif" font-size="14.00" fill="#000000">0x103c00a90</text>
<polyline fill="none" stroke="#c986c3" points="217.75,-882.5 484.75,-882.5"/>
<text text-anchor="middle" x="351.25" y="-865.2" font-family="Times,serif" font-size="14.00" fill="#000000">TYPE: PARAMETERS</text>
<polyline fill="none" stroke="#c986c3" points="217.75,-858 484.75,-858"/>
<text text-anchor="middle" x="262.12" y="-840.7" font-family="Times,serif" font-size="14.00" fill="#000000">Left</text>
<text text-anchor="middle" x="262.12" y="-824.2" font-family="Times,serif" font-size="14.00" fill="#000000">,</text>
<text text-anchor="middle" x="262.12" y="-807.7" font-family="Times,serif" font-size="14.00" fill="#000000">0x103c00a50</text>
<polyline fill="none" stroke="#c986c3" points="306.5,-800.5 306.5,-858"/>
<text text-anchor="middle" x="351.25" y="-840.7" font-family="Times,serif" font-size="14.00" fill="#000000">Parent</text>
<text text-anchor="middle" x="351.25" y="-824.2" font-family="Times,serif" font-size="14.00" fill="#000000">main</text>
<text text-anchor="middle" x="351.25" y="-807.7" font-family="Times,serif" font-size="14.00" fill="#000000">0x103c00b10</text>
<polyline fill="none" stroke="#c986c3" points="396,-800.5 396,-858"/>
<text text-anchor="middle" x="440.38" y="-840.7" font-family="Times,serif" font-size="14.00" fill="#000000">Right</text>
<text text-anchor="middle" x="440.38" y="-824.2" font-family="Times,serif" font-size="14.00" fill="#000000">;</text>
<text text-anchor="middle" x="440.38" y="-807.7" font-family="Times,serif" font-size="14.00" fill="#000000">0x103c00a10</text>
</g>
<!-- node0x103c00b10&#45;&gt;node0x103c00a90 -->
<g id="edge18" class="edge">
<title>node0x103c00b10:right&#45;&gt;node0x103c00a90</title>
<path fill="none" stroke="#48e818" stroke-width="2" d="M319.38,-960C319.38,-951.77 320.42,-943.34 322.14,-935.05"/>
<polygon fill="#48e818" stroke="#48e818" stroke-width="2" points="325.18,-937.35 324.14,-926.8 318.38,-935.7 325.18,-937.35"/>
</g>
<!-- node0x103c00a50 -->
<g id="node5" class="node">
<title>node0x103c00a50</title>
<path fill="#f8e807" stroke="#b6aa05" d="M122.75,-640.5C122.75,-640.5 311.75,-640.5 311.75,-640.5 317.75,-640.5 323.75,-646.5 323.75,-652.5 323.75,-652.5 323.75,-751.5 323.75,-751.5 323.75,-757.5 317.75,-763.5 311.75,-763.5 311.75,-763.5 122.75,-763.5 122.75,-763.5 116.75,-763.5 110.75,-757.5 110.75,-751.5 110.75,-751.5 110.75,-652.5 110.75,-652.5 110.75,-646.5 116.75,-640.5 122.75,-640.5"/>
<text text-anchor="middle" x="217.25" y="-746.2" font-family="Times,serif" font-size="14.00" fill="#000000">,</text>
<text text-anchor="middle" x="217.25" y="-729.7" font-family="Times,serif" font-size="14.00" fill="#000000">0x103c00a50</text>
<polyline fill="none" stroke="#b6aa05" points="110.75,-722.5 323.75,-722.5"/>
<text text-anchor="middle" x="217.25" y="-705.2" font-family="Times,serif" font-size="14.00" fill="#000000">TYPE: KEYWORD</text>
<polyline fill="none" stroke="#b6aa05" points="110.75,-698 323.75,-698"/>
<text text-anchor="middle" x="137.5" y="-680.7" font-family="Times,serif" font-size="14.00" fill="#000000">Left</text>
<text text-anchor="middle" x="137.5" y="-664.2" font-family="Times,serif" font-size="14.00" fill="#000000">NONE</text>
<text text-anchor="middle" x="137.5" y="-647.7" font-family="Times,serif" font-size="14.00" fill="#000000">0x0</text>
<polyline fill="none" stroke="#b6aa05" points="164.25,-640.5 164.25,-698"/>
<text text-anchor="middle" x="217.25" y="-680.7" font-family="Times,serif" font-size="14.00" fill="#000000">Parent</text>
<text text-anchor="middle" x="217.25" y="-664.2" font-family="Times,serif" font-size="14.00" fill="#000000">PARAMETERS</text>
<text text-anchor="middle" x="217.25" y="-647.7" font-family="Times,serif" font-size="14.00" fill="#000000">0x103c00a90</text>
<polyline fill="none" stroke="#b6aa05" points="270.25,-640.5 270.25,-698"/>
<text text-anchor="middle" x="297" y="-680.7" font-family="Times,serif" font-size="14.00" fill="#000000">Right</text>
<text text-anchor="middle" x="297" y="-664.2" font-family="Times,serif" font-size="14.00" fill="#000000">NONE</text>
<text text-anchor="middle" x="297" y="-647.7" font-family="Times,serif" font-size="14.00" fill="#000000">0x0</text>
</g>
<!-- node0x103c00a90&#45;&gt;node0x103c00a50 -->
<g id="edge3" class="edge">
<title>node0x103c00a90:left&#45;&gt;node0x103c00a50</title>
<path fill="none" stroke="#187ae8" stroke-width="2" d="M262.12,-800C262.12,-791.48 260.68,-782.91 258.32,-774.56"/>
<polygon fill="#187ae8" stroke="#187ae8" stroke-width="2" points="262.15,-775 255.67,-766.62 255.51,-777.21 262.15,-775"/>
</g>
<!-- node0x103c00a10 -->
<g id="node6" class="node">
<title>node0x103c00a10</title>
<path fill="#f8e807" stroke="#b6aa05" d="M353.75,-640.5C353.75,-640.5 614.75,-640.5 614.75,-640.5 620.75,-640.5 626.75,-646.5 626.75,-652.5 626.75,-652.5 626.75,-751.5 626.75,-751.5 626.75,-757.5 620.75,-763.5 614.75,-763.5 614.75,-763.5 353.75,-763.5 353.75,-763.5 347.75,-763.5 341.75,-757.5 341.75,-751.5 341.75,-751.5 341.75,-652.5 341.75,-652.5 341.75,-646.5 347.75,-640.5 353.75,-640.5"/>
<text text-anchor="middle" x="484.25" y="-746.2" font-family="Times,serif" font-size="14.00" fill="#000000">;</text>
<text text-anchor="middle" x="484.25" y="-729.7" font-family="Times,serif" font-size="14.00" fill="#000000">0x103c00a10</text>
<polyline fill="none" stroke="#b6aa05" points="341.75,-722.5 626.75,-722.5"/>
<text text-anchor="middle" x="484.25" y="-705.2" font-family="Times,serif" font-size="14.00" fill="#000000">TYPE: KEYWORD</text>
<polyline fill="none" stroke="#b6aa05" points="341.75,-698 626.75,-698"/>
<text text-anchor="middle" x="386.5" y="-680.7" font-family="Times,serif" font-size="14.00" fill="#000000">Left</text>
<text text-anchor="middle" x="386.5" y="-664.2" font-family="Times,serif" font-size="14.00" fill="#000000">a</text>
<text text-anchor="middle" x="386.5" y="-647.7" font-family="Times,serif" font-size="14.00" fill="#000000">0x103c009d0</text>
<polyline fill="none" stroke="#b6aa05" points="431.25,-640.5 431.25,-698"/>
<text text-anchor="middle" x="484.25" y="-680.7" font-family="Times,serif" font-size="14.00" fill="#000000">Parent</text>
<text text-anchor="middle" x="484.25" y="-664.2" font-family="Times,serif" font-size="14.00" fill="#000000">PARAMETERS</text>
<text text-anchor="middle" x="484.25" y="-647.7" font-family="Times,serif" font-size="14.00" fill="#000000">0x103c00a90</text>
<polyline fill="none" stroke="#b6aa05" points="537.25,-640.5 537.25,-698"/>
<text text-anchor="middle" x="582" y="-680.7" font-family="Times,serif" font-size="14.00" fill="#000000">Right</text>
<text text-anchor="middle" x="582" y="-664.2" font-family="Times,serif" font-size="14.00" fill="#000000">;</text>
<text text-anchor="middle" x="582" y="-647.7" font-family="Times,serif" font-size="14.00" fill="#000000">0x103c00890</text>
</g>
<!-- node0x103c00a90&#45;&gt;node0x103c00a10 -->
<g id="edge17" class="edge">
<title>node0x103c00a90:right&#45;&gt;node0x103c00a10</title>
<path fill="none" stroke="#48e818" stroke-width="2" d="M440.38,-800C440.38,-791.52 441.78,-782.96 444.1,-774.63"/>
<polygon fill="#48e818" stroke="#48e818" stroke-width="2" points="446.91,-777.29 446.68,-766.7 440.26,-775.12 446.91,-777.29"/>
</g>
<!-- node0x103c009d0 -->
<g id="node7" class="node">
<title>node0x103c009d0</title>
<path fill="#f34f5d" stroke="#bd132f" d="M138.38,-480.5C138.38,-480.5 382.12,-480.5 382.12,-480.5 388.12,-480.5 394.12,-486.5 394.12,-492.5 394.12,-492.5 394.12,-591.5 394.12,-591.5 394.12,-597.5 388.12,-603.5 382.12,-603.5 382.12,-603.5 138.38,-603.5 138.38,-603.5 132.38,-603.5 126.38,-597.5 126.38,-591.5 126.38,-591.5 126.38,-492.5 126.38,-492.5 126.38,-486.5 132.38,-480.5 138.38,-480.5"/>
<text text-anchor="middle" x="260.25" y="-586.2" font-family="Times,serif" font-size="14.00" fill="#000000">a</text>
<text text-anchor="middle" x="260.25" y="-569.7" font-family="Times,serif" font-size="14.00" fill="#000000">0x103c009d0</text>
<polyline fill="none" stroke="#bd132f" points="126.38,-562.5 394.12,-562.5"/>
<text text-anchor="middle" x="260.25" y="-545.2" font-family="Times,serif" font-size="14.00" fill="#000000">TYPE: VAR_DECLARATION</text>
<polyline fill="none" stroke="#bd132f" points="126.38,-538 394.12,-538"/>
<text text-anchor="middle" x="171.12" y="-520.7" font-family="Times,serif" font-size="14.00" fill="#000000">Left</text>
<text text-anchor="middle" x="171.12" y="-504.2" font-family="Times,serif" font-size="14.00" fill="#000000">double</text>
<text text-anchor="middle" x="171.12" y="-487.7" font-family="Times,serif" font-size="14.00" fill="#000000">0x103c00990</text>
<polyline fill="none" stroke="#bd132f" points="215.88,-480.5 215.88,-538"/>
<text text-anchor="middle" x="260.25" y="-520.7" font-family="Times,serif" font-size="14.00" fill="#000000">Parent</text>
<text text-anchor="middle" x="260.25" y="-504.2" font-family="Times,serif" font-size="14.00" fill="#000000">;</text>
<text text-anchor="middle" x="260.25" y="-487.7" font-family="Times,serif" font-size="14.00" fill="#000000">0x103c00a10</text>
<polyline fill="none" stroke="#bd132f" points="304.62,-480.5 304.62,-538"/>
<text text-anchor="middle" x="349.38" y="-520.7" font-family="Times,serif" font-size="14.00" fill="#000000">Right</text>
<text text-anchor="middle" x="349.38" y="-504.2" font-family="Times,serif" font-size="14.00" fill="#000000">=</text>
<text text-anchor="middle" x="349.38" y="-487.7" font-family="Times,serif" font-size="14.00" fill="#000000">0x103c00950</text>
</g>
<!-- node0x103c00a10&#45;&gt;node0x103c009d0 -->
<g id="edge4" class="edge">
<title>node0x103c00a10:left&#45;&gt;node0x103c009d0</title>
<path fill="none" stroke="#187ae8" stroke-width="2" d="M340.75,-669.25C327.33,-669.25 339.06,-652.1 333.25,-640 328.89,-630.93 323.62,-621.87 317.93,-613.14"/>
<polygon fill="#187ae8" stroke="#187ae8" stroke-width="2" points="321.81,-612.62 313.31,-606.3 316.01,-616.55 321.81,-612.62"/>
</g>
<!-- node0x103c00890 -->
<g id="node12" class="node">
<title>node0x103c00890</title>
<path fill="#f8e807" stroke="#b6aa05" d="M585.38,-480.5C585.38,-480.5 829.12,-480.5 829.12,-480.5 835.12,-480.5 841.12,-486.5 841.12,-492.5 841.12,-492.5 841.12,-591.5 841.12,-591.5 841.12,-597.5 835.12,-603.5 829.12,-603.5 829.12,-603.5 585.38,-603.5 585.38,-603.5 579.38,-603.5 573.38,-597.5 573.38,-591.5 573.38,-591.5 573.38,-492.5 573.38,-492.5 573.38,-486.5 579.38,-480.5 585.38,-480.5"/>
<text text-anchor="middle" x="707.25" y="-586.2" font-family="Times,serif" font-size="14.00" fill="#000000">;</text>
<text text-anchor="middle" x="707.25" y="-569.7" font-family="Times,serif" font-size="14.00" fill="#000000">0x103c00890</text>
<polyline fill="none" stroke="#b6aa05" points="573.38,-562.5 841.12,-562.5"/>
<text text-anchor="middle" x="707.25" y="-545.2" font-family="Times,serif" font-size="14.00" fill="#000000">TYPE: KEYWORD</text>
<polyline fill="none" stroke="#b6aa05" points="573.38,-538 841.12,-538"/>
<text text-anchor="middle" x="618.12" y="-520.7" font-family="Times,serif" font-size="14.00" fill="#000000">Left</text>
<text text-anchor="middle" x="618.12" y="-504.2" font-family="Times,serif" font-size="14.00" fill="#000000">printf</text>
<text text-anchor="middle" x="618.12" y="-487.7" font-family="Times,serif" font-size="14.00" fill="#000000">0x103c00850</text>
<polyline fill="none" stroke="#b6aa05" points="662.88,-480.5 662.88,-538"/>
<text text-anchor="middle" x="707.25" y="-520.7" font-family="Times,serif" font-size="14.00" fill="#000000">Parent</text>
<text text-anchor="middle" x="707.25" y="-504.2" font-family="Times,serif" font-size="14.00" fill="#000000">;</text>
<text text-anchor="middle" x="707.25" y="-487.7" font-family="Times,serif" font-size="14.00" fill="#000000">0x103c00a10</text>
<polyline fill="none" stroke="#b6aa05" points="751.62,-480.5 751.62,-538"/>
<text text-anchor="middle" x="796.38" y="-520.7" font-family="Times,serif" font-size="14.00" fill="#000000">Right</text>
<text text-anchor="middle" x="796.38" y="-504.2" font-family="Times,serif" font-size="14.00" fill="#000000">;</text>
<text text-anchor="middle" x="796.38" y="-487.7" font-family="Times,serif" font-size="14.00" fill="#000000">0x103c00750</text>
</g>
<!-- node0x103c00a10&#45;&gt;node0x103c00890 -->
<g id="edge16" class="edge">
<title>node0x103c00a10:right&#45;&gt;node0x103c00890</title>
<path fill="none" stroke="#48e818" stroke-width="2" d="M627.75,-669.25C657.97,-669.25 677.16,-643.03 689.09,-614.48"/>
<polygon fill="#48e818" stroke="#48e818" stroke-width="2" points="691.75,-617.32 692.08,-606.73 685.22,-614.8 691.75,-617.32"/>
</g>
<!-- node0x103c00990 -->
<g id="node8" class="node">
<title>node0x103c00990</title>
<path fill="#f8e807" stroke="#b6aa05" d="M12,-320.5C12,-320.5 184.5,-320.5 184.5,-320.5 190.5,-320.5 196.5,-326.5 196.5,-332.5 196.5,-332.5 196.5,-431.5 196.5,-431.5 196.5,-437.5 190.5,-443.5 184.5,-443.5 184.5,-443.5 12,-443.5 12,-443.5 6,-443.5 0,-437.5 0,-431.5 0,-431.5 0,-332.5 0,-332.5 0,-326.5 6,-320.5 12,-320.5"/>
<text text-anchor="middle" x="98.25" y="-426.2" font-family="Times,serif" font-size="14.00" fill="#000000">double</text>
<text text-anchor="middle" x="98.25" y="-409.7" font-family="Times,serif" font-size="14.00" fill="#000000">0x103c00990</text>
<polyline fill="none" stroke="#b6aa05" points="0,-402.5 196.5,-402.5"/>
<text text-anchor="middle" x="98.25" y="-385.2" font-family="Times,serif" font-size="14.00" fill="#000000">TYPE: KEYWORD</text>
<polyline fill="none" stroke="#b6aa05" points="0,-378 196.5,-378"/>
<text text-anchor="middle" x="26.75" y="-360.7" font-family="Times,serif" font-size="14.00" fill="#000000">Left</text>
<text text-anchor="middle" x="26.75" y="-344.2" font-family="Times,serif" font-size="14.00" fill="#000000">NONE</text>
<text text-anchor="middle" x="26.75" y="-327.7" font-family="Times,serif" font-size="14.00" fill="#000000">0x0</text>
<polyline fill="none" stroke="#b6aa05" points="53.5,-320.5 53.5,-378"/>
<text text-anchor="middle" x="98.25" y="-360.7" font-family="Times,serif" font-size="14.00" fill="#000000">Parent</text>
<text text-anchor="middle" x="98.25" y="-344.2" font-family="Times,serif" font-size="14.00" fill="#000000">a</text>
<text text-anchor="middle" x="98.25" y="-327.7" font-family="Times,serif" font-size="14.00" fill="#000000">0x103c009d0</text>
<polyline fill="none" stroke="#b6aa05" points="143,-320.5 143,-378"/>
<text text-anchor="middle" x="169.75" y="-360.7" font-family="Times,serif" font-size="14.00" fill="#000000">Right</text>
<text text-anchor="middle" x="169.75" y="-344.2" font-family="Times,serif" font-size="14.00" fill="#000000">NONE</text>
<text text-anchor="middle" x="169.75" y="-327.7" font-family="Times,serif" font-size="14.00" fill="#000000">0x0</text>
</g>
<!-- node0x103c009d0&#45;&gt;node0x103c00990 -->
<g id="edge5" class="edge">
<title>node0x103c009d0:left&#45;&gt;node0x103c00990</title>
<path fill="none" stroke="#187ae8" stroke-width="2" d="M171.12,-480C171.12,-470.97 169.08,-462.24 165.67,-453.96"/>
<polygon fill="#187ae8" stroke="#187ae8" stroke-width="2" points="169.54,-453.91 162.01,-446.46 163.25,-456.98 169.54,-453.91"/>
</g>
<!-- node0x103c00950 -->
<g id="node9" class="node">
<title>node0x103c00950</title>
<path fill="#f8e807" stroke="#b6aa05" d="M227,-320.5C227,-320.5 471.5,-320.5 471.5,-320.5 477.5,-320.5 483.5,-326.5 483.5,-332.5 483.5,-332.5 483.5,-431.5 483.5,-431.5 483.5,-437.5 477.5,-443.5 471.5,-443.5 471.5,-443.5 227,-443.5 227,-443.5 221,-443.5 215,-437.5 215,-431.5 215,-431.5 215,-332.5 215,-332.5 215,-326.5 221,-320.5 227,-320.5"/>
<text text-anchor="middle" x="349.25" y="-426.2" font-family="Times,serif" font-size="14.00" fill="#000000">=</text>
<text text-anchor="middle" x="349.25" y="-409.7" font-family="Times,serif" font-size="14.00" fill="#000000">0x103c00950</text>
<polyline fill="none" stroke="#b6aa05" points="215,-402.5 483.5,-402.5"/>
<text text-anchor="middle" x="349.25" y="-385.2" font-family="Times,serif" font-size="14.00" fill="#000000">TYPE: KEYWORD</text>
<polyline fill="none" stroke="#b6aa05" points="215,-378 483.5,-378"/>
<text text-anchor="middle" x="259.75" y="-360.7" font-family="Times,serif" font-size="14.00" fill="#000000">Left</text>
<text text-anchor="middle" x="259.75" y="-344.2" font-family="Times,serif" font-size="14.00" fill="#000000">input</text>
<text text-anchor="middle" x="259.75" y="-327.7" font-family="Times,serif" font-size="14.00" fill="#000000">0x103c00910</text>
<polyline fill="none" stroke="#b6aa05" points="304.5,-320.5 304.5,-378"/>
<text text-anchor="middle" x="349.25" y="-360.7" font-family="Times,serif" font-size="14.00" fill="#000000">Parent</text>
<text text-anchor="middle" x="349.25" y="-344.2" font-family="Times,serif" font-size="14.00" fill="#000000">a</text>
<text text-anchor="middle" x="349.25" y="-327.7" font-family="Times,serif" font-size="14.00" fill="#000000">0x103c009d0</text>
<polyline fill="none" stroke="#b6aa05" points="394,-320.5 394,-378"/>
<text text-anchor="middle" x="438.75" y="-360.7" font-family="Times,serif" font-size="14.00" fill="#000000">Right</text>
<text text-anchor="middle" x="438.75" y="-344.2" font-family="Times,serif" font-size="14.00" fill="#000000">a</text>
<text text-anchor="middle" x="438.75" y="-327.7" font-family="Times,serif" font-size="14.00" fill="#000000">0x103c008d0</text>
</g>
<!-- node0x103c009d0&#45;&gt;node0x103c00950 -->
<g id="edge8" class="edge">
<title>node0x103c009d0:right&#45;&gt;node0x103c00950</title>
<path fill="none" stroke="#48e818" stroke-width="2" d="M349.38,-480C349.38,-471.95 349.37,-463.53 349.36,-455.15"/>
<polygon fill="#48e818" stroke="#48e818" stroke-width="2" points="352.87,-456.82 349.36,-446.83 345.87,-456.83 352.87,-456.82"/>
</g>
<!-- node0x103c00910 -->
<g id="node10" class="node">
<title>node0x103c00910</title>
<path fill="#f8e807" stroke="#b6aa05" d="M137,-160.5C137,-160.5 309.5,-160.5 309.5,-160.5 315.5,-160.5 321.5,-166.5 321.5,-172.5 321.5,-172.5 321.5,-271.5 321.5,-271.5 321.5,-277.5 315.5,-283.5 309.5,-283.5 309.5,-283.5 137,-283.5 137,-283.5 131,-283.5 125,-277.5 125,-271.5 125,-271.5 125,-172.5 125,-172.5 125,-166.5 131,-160.5 137,-160.5"/>
<text text-anchor="middle" x="223.25" y="-266.2" font-family="Times,serif" font-size="14.00" fill="#000000">input</text>
<text text-anchor="middle" x="223.25" y="-249.7" font-family="Times,serif" font-size="14.00" fill="#000000">0x103c00910</text>
<polyline fill="none" stroke="#b6aa05" points="125,-242.5 321.5,-242.5"/>
<text text-anchor="middle" x="223.25" y="-225.2" font-family="Times,serif" font-size="14.00" fill="#000000">TYPE: KEYWORD</text>
<polyline fill="none" stroke="#b6aa05" points="125,-218 321.5,-218"/>
<text text-anchor="middle" x="151.75" y="-200.7" font-family="Times,serif" font-size="14.00" fill="#000000">Left</text>
<text text-anchor="middle" x="151.75" y="-184.2" font-family="Times,serif" font-size="14.00" fill="#000000">NONE</text>
<text text-anchor="middle" x="151.75" y="-167.7" font-family="Times,serif" font-size="14.00" fill="#000000">0x0</text>
<polyline fill="none" stroke="#b6aa05" points="178.5,-160.5 178.5,-218"/>
<text text-anchor="middle" x="223.25" y="-200.7" font-family="Times,serif" font-size="14.00" fill="#000000">Parent</text>
<text text-anchor="middle" x="223.25" y="-184.2" font-family="Times,serif" font-size="14.00" fill="#000000">=</text>
<text text-anchor="middle" x="223.25" y="-167.7" font-family="Times,serif" font-size="14.00" fill="#000000">0x103c00950</text>
<polyline fill="none" stroke="#b6aa05" points="268,-160.5 268,-218"/>
<text text-anchor="middle" x="294.75" y="-200.7" font-family="Times,serif" font-size="14.00" fill="#000000">Right</text>
<text text-anchor="middle" x="294.75" y="-184.2" font-family="Times,serif" font-size="14.00" fill="#000000">NONE</text>
<text text-anchor="middle" x="294.75" y="-167.7" font-family="Times,serif" font-size="14.00" fill="#000000">0x0</text>
</g>
<!-- node0x103c00950&#45;&gt;node0x103c00910 -->
<g id="edge6" class="edge">
<title>node0x103c00950:left&#45;&gt;node0x103c00910</title>
<path fill="none" stroke="#187ae8" stroke-width="2" d="M259.75,-320C259.75,-311.62 258.54,-303.07 256.56,-294.71"/>
<polygon fill="#187ae8" stroke="#187ae8" stroke-width="2" points="260.4,-295.46 254.36,-286.75 253.66,-297.32 260.4,-295.46"/>
</g>
<!-- node0x103c008d0 -->
<g id="node11" class="node">
<title>node0x103c008d0</title>
<path fill="#d5cfe1" stroke="#8797b2" d="M352,-160.5C352,-160.5 524.5,-160.5 524.5,-160.5 530.5,-160.5 536.5,-166.5 536.5,-172.5 536.5,-172.5 536.5,-271.5 536.5,-271.5 536.5,-277.5 530.5,-283.5 524.5,-283.5 524.5,-283.5 352,-283.5 352,-283.5 346,-283.5 340,-277.5 340,-271.5 340,-271.5 340,-172.5 340,-172.5 340,-166.5 346,-160.5 352,-160.5"/>
<text text-anchor="middle" x="438.25" y="-266.2" font-family="Times,serif" font-size="14.00" fill="#000000">a</text>
<text text-anchor="middle" x="438.25" y="-249.7" font-family="Times,serif" font-size="14.00" fill="#000000">0x103c008d0</text>
<polyline fill="none" stroke="#8797b2" points="340,-242.5 536.5,-242.5"/>
<text text-anchor="middle" x="438.25" y="-225.2" font-family="Times,serif" font-size="14.00" fill="#000000">TYPE: IDENTIFIER</text>
<polyline fill="none" stroke="#8797b2" points="340,-218 536.5,-218"/>
<text text-anchor="middle" x="366.75" y="-200.7" font-family="Times,serif" font-size="14.00" fill="#000000">Left</text>
<text text-anchor="middle" x="366.75" y="-184.2" font-family="Times,serif" font-size="14.00" fill="#000000">NONE</text>
<text text-anchor="middle" x="366.75" y="-167.7" font-family="Times,serif" font-size="14.00" fill="#000000">0x0</text>
<polyline fill="none" stroke="#8797b2" points="393.5,-160.5 393.5,-218"/>
<text text-anchor="middle" x="438.25" y="-200.7" font-family="Times,serif" font-size="14.00" fill="#000000">Parent</text>
<text text-anchor="middle" x="438.25" y="-184.2" font-family="Times,serif" font-size="14.00" fill="#000000">=</text>
<text text-anchor="middle" x="438.25" y="-167.7" font-family="Times,serif" font-size="14.00" fill="#000000">0x103c00950</text>
<polyline fill="none" stroke="#8797b2" points="483,-160.5 483,-218"/>
<text text-anchor="middle" x="509.75" y="-200.7" font-family="Times,serif" font-size="14.00" fill="#000000">Right</text>
<text text-anchor="middle" x="509.75" y="-184.2" font-family="Times,serif" font-size="14.00" fill="#000000">NONE</text>
<text text-anchor="middle" x="509.75" y="-167.7" font-family="Times,serif" font-size="14.00" fill="#000000">0x0</text>
</g>
<!-- node0x103c00950&#45;&gt;node0x103c008d0 -->
<g id="edge7" class="edge">
<title>node0x103c00950:right&#45;&gt;node0x103c008d0</title>
<path fill="none" stroke="#48e818" stroke-width="2" d="M438.75,-320C438.75,-311.95 438.73,-303.53 438.7,-295.15"/>
<polygon fill="#48e818" stroke="#48e818" stroke-width="2" points="442.21,-296.81 438.67,-286.83 435.21,-296.84 442.21,-296.81"/>
</g>
<!-- node0x103c00850 -->
<g id="node13" class="node">
<title>node0x103c00850</title>
<path fill="#f8e807" stroke="#b6aa05" d="M514,-320.5C514,-320.5 722.5,-320.5 722.5,-320.5 728.5,-320.5 734.5,-326.5 734.5,-332.5 734.5,-332.5 734.5,-431.5 734.5,-431.5 734.5,-437.5 728.5,-443.5 722.5,-443.5 722.5,-443.5 514,-443.5 514,-443.5 508,-443.5 502,-437.5 502,-431.5 502,-431.5 502,-332.5 502,-332.5 502,-326.5 508,-320.5 514,-320.5"/>
<text text-anchor="middle" x="618.25" y="-426.2" font-family="Times,serif" font-size="14.00" fill="#000000">printf</text>
<text text-anchor="middle" x="618.25" y="-409.7" font-family="Times,serif" font-size="14.00" fill="#000000">0x103c00850</text>
<polyline fill="none" stroke="#b6aa05" points="502,-402.5 734.5,-402.5"/>
<text text-anchor="middle" x="618.25" y="-385.2" font-family="Times,serif" font-size="14.00" fill="#000000">TYPE: KEYWORD</text>
<polyline fill="none" stroke="#b6aa05" points="502,-378 734.5,-378"/>
<text text-anchor="middle" x="528.75" y="-360.7" font-family="Times,serif" font-size="14.00" fill="#000000">Left</text>
<text text-anchor="middle" x="528.75" y="-344.2" font-family="Times,serif" font-size="14.00" fill="#000000">NONE</text>
<text text-anchor="middle" x="528.75" y="-327.7" font-family="Times,serif" font-size="14.00" fill="#000000">0x0</text>
<polyline fill="none" stroke="#b6aa05" points="555.5,-320.5 555.5,-378"/>
<text text-anchor="middle" x="600.25" y="-360.7" font-family="Times,serif" font-size="14.00" fill="#000000">Parent</text>
<text text-anchor="middle" x="600.25" y="-344.2" font-family="Times,serif" font-size="14.00" fill="#000000">;</text>
<text text-anchor="middle" x="600.25" y="-327.7" font-family="Times,serif" font-size="14.00" fill="#000000">0x103c00890</text>
<polyline fill="none" stroke="#b6aa05" points="645,-320.5 645,-378"/>
<text text-anchor="middle" x="689.75" y="-360.7" font-family="Times,serif" font-size="14.00" fill="#000000">Right</text>
<text text-anchor="middle" x="689.75" y="-344.2" font-family="Times,serif" font-size="14.00" fill="#000000">+</text>
<text text-anchor="middle" x="689.75" y="-327.7" font-family="Times,serif" font-size="14.00" fill="#000000">0x103c00810</text>
</g>
<!-- node0x103c00890&#45;&gt;node0x103c00850 -->
<g id="edge9" class="edge">
<title>node0x103c00890:left&#45;&gt;node0x103c00850</title>
<path fill="none" stroke="#187ae8" stroke-width="2" d="M618.12,-480C618.12,-471.95 618.13,-463.53 618.14,-455.15"/>
<polygon fill="#187ae8" stroke="#187ae8" stroke-width="2" points="621.63,-456.83 618.14,-446.83 614.63,-456.82 621.63,-456.83"/>
</g>
<!-- node0x103c00750 -->
<g id="node17" class="node">
<title>node0x103c00750</title>
<path fill="#f8e807" stroke="#b6aa05" d="M845,-320.5C845,-320.5 1053.5,-320.5 1053.5,-320.5 1059.5,-320.5 1065.5,-326.5 1065.5,-332.5 1065.5,-332.5 1065.5,-431.5 1065.5,-431.5 1065.5,-437.5 1059.5,-443.5 1053.5,-443.5 1053.5,-443.5 845,-443.5 845,-443.5 839,-443.5 833,-437.5 833,-431.5 833,-431.5 833,-332.5 833,-332.5 833,-326.5 839,-320.5 845,-320.5"/>
<text text-anchor="middle" x="949.25" y="-426.2" font-family="Times,serif" font-size="14.00" fill="#000000">;</text>
<text text-anchor="middle" x="949.25" y="-409.7" font-family="Times,serif" font-size="14.00" fill="#000000">0x103c00750</text>
<polyline fill="none" stroke="#b6aa05" points="833,-402.5 1065.5,-402.5"/>
<text text-anchor="middle" x="949.25" y="-385.2" font-family="Times,serif" font-size="14.00" fill="#000000">TYPE: KEYWORD</text>
<polyline fill="none" stroke="#b6aa05" points="833,-378 1065.5,-378"/>
<text text-anchor="middle" x="877.75" y="-360.7" font-family="Times,serif" font-size="14.00" fill="#000000">Left</text>
<text text-anchor="middle" x="877.75" y="-344.2" font-family="Times,serif" font-size="14.00" fill="#000000">return</text>
<text text-anchor="middle" x="877.75" y="-327.7" font-family="Times,serif" font-size="14.00" fill="#000000">0x103c00710</text>
<polyline fill="none" stroke="#b6aa05" points="922.5,-320.5 922.5,-378"/>
<text text-anchor="middle" x="967.25" y="-360.7" font-family="Times,serif" font-size="14.00" fill="#000000">Parent</text>
<text text-anchor="middle" x="967.25" y="-344.2" font-family="Times,serif" font-size="14.00" fill="#000000">;</text>
<text text-anchor="middle" x="967.25" y="-327.7" font-family="Times,serif" font-size="14.00" fill="#000000">0x103c00890</text>
<polyline fill="none" stroke="#b6aa05" points="1012,-320.5 1012,-378"/>
<text text-anchor="middle" x="1038.75" y="-360.7" font-family="Times,serif" font-size="14.00" fill="#000000">Right</text>
<text text-anchor="middle" x="1038.75" y="-344.2" font-family="Times,serif" font-size="14.00" fill="#000000">NONE</text>
<text text-anchor="middle" x="1038.75" y="-327.7" font-family="Times,serif" font-size="14.00" fill="#000000">0x0</text>
</g>
<!-- node0x103c00890&#45;&gt;node0x103c00750 -->
<g id="edge15" class="edge">
<title>node0x103c00890:right&#45;&gt;node0x103c00750</title>
<path fill="none" stroke="#48e818" stroke-width="2" d="M842.12,-509.25C875.96,-509.25 901.32,-482.56 918.86,-453.73"/>
<polygon fill="#48e818" stroke="#48e818" stroke-width="2" points="921.05,-456.94 923,-446.53 914.98,-453.46 921.05,-456.94"/>
</g>
<!-- node0x103c00810 -->
<g id="node14" class="node">
<title>node0x103c00810</title>
<path fill="#f8e807" stroke="#b6aa05" d="M567,-160.5C567,-160.5 811.5,-160.5 811.5,-160.5 817.5,-160.5 823.5,-166.5 823.5,-172.5 823.5,-172.5 823.5,-271.5 823.5,-271.5 823.5,-277.5 817.5,-283.5 811.5,-283.5 811.5,-283.5 567,-283.5 567,-283.5 561,-283.5 555,-277.5 555,-271.5 555,-271.5 555,-172.5 555,-172.5 555,-166.5 561,-160.5 567,-160.5"/>
<text text-anchor="middle" x="689.25" y="-266.2" font-family="Times,serif" font-size="14.00" fill="#000000">+</text>
<text text-anchor="middle" x="689.25" y="-249.7" font-family="Times,serif" font-size="14.00" fill="#000000">0x103c00810</text>
<polyline fill="none" stroke="#b6aa05" points="555,-242.5 823.5,-242.5"/>
<text text-anchor="middle" x="689.25" y="-225.2" font-family="Times,serif" font-size="14.00" fill="#000000">TYPE: KEYWORD</text>
<polyline fill="none" stroke="#b6aa05" points="555,-218 823.5,-218"/>
<text text-anchor="middle" x="599.75" y="-200.7" font-family="Times,serif" font-size="14.00" fill="#000000">Left</text>
<text text-anchor="middle" x="599.75" y="-184.2" font-family="Times,serif" font-size="14.00" fill="#000000">a</text>
<text text-anchor="middle" x="599.75" y="-167.7" font-family="Times,serif" font-size="14.00" fill="#000000">0x103c007d0</text>
<polyline fill="none" stroke="#b6aa05" points="644.5,-160.5 644.5,-218"/>
<text text-anchor="middle" x="689.25" y="-200.7" font-family="Times,serif" font-size="14.00" fill="#000000">Parent</text>
<text text-anchor="middle" x="689.25" y="-184.2" font-family="Times,serif" font-size="14.00" fill="#000000">printf</text>
<text text-anchor="middle" x="689.25" y="-167.7" font-family="Times,serif" font-size="14.00" fill="#000000">0x103c00850</text>
<polyline fill="none" stroke="#b6aa05" points="734,-160.5 734,-218"/>
<text text-anchor="middle" x="778.75" y="-200.7" font-family="Times,serif" font-size="14.00" fill="#000000">Right</text>
<text text-anchor="middle" x="778.75" y="-184.2" font-family="Times,serif" font-size="14.00" fill="#000000">10</text>
<text text-anchor="middle" x="778.75" y="-167.7" font-family="Times,serif" font-size="14.00" fill="#000000">0x103c00790</text>
</g>
<!-- node0x103c00850&#45;&gt;node0x103c00810 -->
<g id="edge12" class="edge">
<title>node0x103c00850:right&#45;&gt;node0x103c00810</title>
<path fill="none" stroke="#48e818" stroke-width="2" d="M689.75,-320C689.75,-311.95 689.73,-303.53 689.7,-295.15"/>
<polygon fill="#48e818" stroke="#48e818" stroke-width="2" points="693.21,-296.81 689.67,-286.83 686.21,-296.84 693.21,-296.81"/>
</g>
<!-- node0x103c007d0 -->
<g id="node15" class="node">
<title>node0x103c007d0</title>
<path fill="#d5cfe1" stroke="#8797b2" d="M495,-0.5C495,-0.5 667.5,-0.5 667.5,-0.5 673.5,-0.5 679.5,-6.5 679.5,-12.5 679.5,-12.5 679.5,-111.5 679.5,-111.5 679.5,-117.5 673.5,-123.5 667.5,-123.5 667.5,-123.5 495,-123.5 495,-123.5 489,-123.5 483,-117.5 483,-111.5 483,-111.5 483,-12.5 483,-12.5 483,-6.5 489,-0.5 495,-0.5"/>
<text text-anchor="middle" x="581.25" y="-106.2" font-family="Times,serif" font-size="14.00" fill="#000000">a</text>
<text text-anchor="middle" x="581.25" y="-89.7" font-family="Times,serif" font-size="14.00" fill="#000000">0x103c007d0</text>
<polyline fill="none" stroke="#8797b2" points="483,-82.5 679.5,-82.5"/>
<text text-anchor="middle" x="581.25" y="-65.2" font-family="Times,serif" font-size="14.00" fill="#000000">TYPE: IDENTIFIER</text>
<polyline fill="none" stroke="#8797b2" points="483,-58 679.5,-58"/>
<text text-anchor="middle" x="509.75" y="-40.7" font-family="Times,serif" font-size="14.00" fill="#000000">Left</text>
<text text-anchor="middle" x="509.75" y="-24.2" font-family="Times,serif" font-size="14.00" fill="#000000">NONE</text>
<text text-anchor="middle" x="509.75" y="-7.7" font-family="Times,serif" font-size="14.00" fill="#000000">0x0</text>
<polyline fill="none" stroke="#8797b2" points="536.5,-0.5 536.5,-58"/>
<text text-anchor="middle" x="581.25" y="-40.7" font-family="Times,serif" font-size="14.00" fill="#000000">Parent</text>
<text text-anchor="middle" x="581.25" y="-24.2" font-family="Times,serif" font-size="14.00" fill="#000000">+</text>
<text text-anchor="middle" x="581.25" y="-7.7" font-family="Times,serif" font-size="14.00" fill="#000000">0x103c00810</text>
<polyline fill="none" stroke="#8797b2" points="626,-0.5 626,-58"/>
<text text-anchor="middle" x="652.75" y="-40.7" font-family="Times,serif" font-size="14.00" fill="#000000">Right</text>
<text text-anchor="middle" x="652.75" y="-24.2" font-family="Times,serif" font-size="14.00" fill="#000000">NONE</text>
<text text-anchor="middle" x="652.75" y="-7.7" font-family="Times,serif" font-size="14.00" fill="#000000">0x0</text>
</g>
<!-- node0x103c00810&#45;&gt;node0x103c007d0 -->
<g id="edge10" class="edge">
<title>node0x103c00810:left&#45;&gt;node0x103c007d0</title>
<path fill="none" stroke="#187ae8" stroke-width="2" d="M599.75,-160C599.75,-151.93 599.12,-143.54 598.1,-135.23"/>
<polygon fill="#187ae8" stroke="#187ae8" stroke-width="2" points="601.8,-136.38 596.92,-126.98 594.87,-137.38 601.8,-136.38"/>
</g>
<!-- node0x103c00790 -->
<g id="node16" class="node">
<title>node0x103c00790</title>
<path fill="#bdef9e" stroke="#74af80" d="M710,-0.5C710,-0.5 882.5,-0.5 882.5,-0.5 888.5,-0.5 894.5,-6.5 894.5,-12.5 894.5,-12.5 894.5,-111.5 894.5,-111.5 894.5,-117.5 888.5,-123.5 882.5,-123.5 882.5,-123.5 710,-123.5 710,-123.5 704,-123.5 698,-117.5 698,-111.5 698,-111.5 698,-12.5 698,-12.5 698,-6.5 704,-0.5 710,-0.5"/>
<text text-anchor="middle" x="796.25" y="-106.2" font-family="Times,serif" font-size="14.00" fill="#000000">10</text>
<text text-anchor="middle" x="796.25" y="-89.7" font-family="Times,serif" font-size="14.00" fill="#000000">0x103c00790</text>
<polyline fill="none" stroke="#74af80" points="698,-82.5 894.5,-82.5"/>
<text text-anchor="middle" x="796.25" y="-65.2" font-family="Times,serif" font-size="14.00" fill="#000000">TYPE: NUMBER</text>
<polyline fill="none" stroke="#74af80" points="698,-58 894.5,-58"/>
<text text-anchor="middle" x="724.75" y="-40.7" font-family="Times,serif" font-size="14.00" fill="#000000">Left</text>
<text text-anchor="middle" x="724.75" y="-24.2" font-family="Times,serif" font-size="14.00" fill="#000000">NONE</text>
<text text-anchor="middle" x="724.75" y="-7.7" font-family="Times,serif" font-size="14.00" fill="#000000">0x0</text>
<polyline fill="none" stroke="#74af80" points="751.5,-0.5 751.5,-58"/>
<text text-anchor="middle" x="796.25" y="-40.7" font-family="Times,serif" font-size="14.00" fill="#000000">Parent</text>
<text text-anchor="middle" x="796.25" y="-24.2" font-family="Times,serif" font-size="14.00" fill="#000000">+</text>
<text text-anchor="middle" x="796.25" y="-7.7" font-family="Times,serif" font-size="14.00" fill="#000000">0x103c00810</text>
<polyline fill="none" stroke="#74af80" points="841,-0.5 841,-58"/>
<text text-anchor="middle" x="867.75" y="-40.7" font-family="Times,serif" font-size="14.00" fill="#000000">Right</text>
<text text-anchor="middle" x="867.75" y="-24.2" font-family="Times,serif" font-size="14.00" fill="#000000">NONE</text>
<text text-anchor="middle" x="867.75" y="-7.7" font-family="Times,serif" font-size="14.00" fill="#000000">0x0</text>
</g>
<!-- node0x103c00810&#45;&gt;node0x103c00790 -->
<g id="edge11" class="edge">
<title>node0x103c00810:right&#45;&gt;node0x103c00790</title>
<path fill="none" stroke="#48e818" stroke-width="2" d="M778.75,-160C778.75,-151.88 779.35,-143.44 780.33,-135.08"/>
<polygon fill="#48e818" stroke="#48e818" stroke-width="2" points="783.58,-137.14 781.47,-126.76 776.65,-136.19 783.58,-137.14"/>
</g>
<!-- node0x103c00710 -->
<g id="node18" class="node">
<title>node0x103c00710</title>
<path fill="#f8e807" stroke="#b6aa05" d="M854,-160.5C854,-160.5 1062.5,-160.5 1062.5,-160.5 1068.5,-160.5 1074.5,-166.5 1074.5,-172.5 1074.5,-172.5 1074.5,-271.5 1074.5,-271.5 1074.5,-277.5 1068.5,-283.5 1062.5,-283.5 1062.5,-283.5 854,-283.5 854,-283.5 848,-283.5 842,-277.5 842,-271.5 842,-271.5 842,-172.5 842,-172.5 842,-166.5 848,-160.5 854,-160.5"/>
<text text-anchor="middle" x="958.25" y="-266.2" font-family="Times,serif" font-size="14.00" fill="#000000">return</text>
<text text-anchor="middle" x="958.25" y="-249.7" font-family="Times,serif" font-size="14.00" fill="#000000">0x103c00710</text>
<polyline fill="none" stroke="#b6aa05" points="842,-242.5 1074.5,-242.5"/>
<text text-anchor="middle" x="958.25" y="-225.2" font-family="Times,serif" font-size="14.00" fill="#000000">TYPE: KEYWORD</text>
<polyline fill="none" stroke="#b6aa05" points="842,-218 1074.5,-218"/>
<text text-anchor="middle" x="868.75" y="-200.7" font-family="Times,serif" font-size="14.00" fill="#000000">Left</text>
<text text-anchor="middle" x="868.75" y="-184.2" font-family="Times,serif" font-size="14.00" fill="#000000">NONE</text>
<text text-anchor="middle" x="868.75" y="-167.7" font-family="Times,serif" font-size="14.00" fill="#000000">0x0</text>
<polyline fill="none" stroke="#b6aa05" points="895.5,-160.5 895.5,-218"/>
<text text-anchor="middle" x="940.25" y="-200.7" font-family="Times,serif" font-size="14.00" fill="#000000">Parent</text>
<text text-anchor="middle" x="940.25" y="-184.2" font-family="Times,serif" font-size="14.00" fill="#000000">;</text>
<text text-anchor="middle" x="940.25" y="-167.7" font-family="Times,serif" font-size="14.00" fill="#000000">0x103c00750</text>
<polyline fill="none" stroke="#b6aa05" points="985,-160.5 985,-218"/>
<text text-anchor="middle" x="1029.75" y="-200.7" font-family="Times,serif" font-size="14.00" fill="#000000">Right</text>
<text text-anchor="middle" x="1029.75" y="-184.2" font-family="Times,serif" font-size="14.00" fill="#000000">0</text>
<text text-anchor="middle" x="1029.75" y="-167.7" font-family="Times,serif" font-size="14.00" fill="#000000">0x103c006d0</text>
</g>
<!-- node0x103c00750&#45;&gt;node0x103c00710 -->
<g id="edge13" class="edge">
<title>node0x103c00750:left&#45;&gt;node0x103c00710</title>
<path fill="none" stroke="#187ae8" stroke-width="2" d="M877.75,-320C877.75,-310.92 879.86,-302.24 883.41,-294.06"/>
<polygon fill="#187ae8" stroke="#187ae8" stroke-width="2" points="885.74,-297.16 887.22,-286.67 879.52,-293.95 885.74,-297.16"/>
</g>
<!-- node0x103c006d0 -->
<g id="node19" class="node">
<title>node0x103c006d0</title>
<path fill="#bdef9e" stroke="#74af80" d="M943,-0.5C943,-0.5 1115.5,-0.5 1115.5,-0.5 1121.5,-0.5 1127.5,-6.5 1127.5,-12.5 1127.5,-12.5 1127.5,-111.5 1127.5,-111.5 1127.5,-117.5 1121.5,-123.5 1115.5,-123.5 1115.5,-123.5 943,-123.5 943,-123.5 937,-123.5 931,-117.5 931,-111.5 931,-111.5 931,-12.5 931,-12.5 931,-6.5 937,-0.5 943,-0.5"/>
<text text-anchor="middle" x="1029.25" y="-106.2" font-family="Times,serif" font-size="14.00" fill="#000000">0</text>
<text text-anchor="middle" x="1029.25" y="-89.7" font-family="Times,serif" font-size="14.00" fill="#000000">0x103c006d0</text>
<polyline fill="none" stroke="#74af80" points="931,-82.5 1127.5,-82.5"/>
<text text-anchor="middle" x="1029.25" y="-65.2" font-family="Times,serif" font-size="14.00" fill="#000000">TYPE: NUMBER</text>
<polyline fill="none" stroke="#74af80" points="931,-58 1127.5,-58"/>
<text text-anchor="middle" x="957.75" y="-40.7" font-family="Times,serif" font-size="14.00" fill="#000000">Left</text>
<text text-anchor="middle" x="957.75" y="-24.2" font-family="Times,serif" font-size="14.00" fill="#000000">NONE</text>
<text text-anchor="middle" x="957.75" y="-7.7" font-family="Times,serif" font-size="14.00" fill="#000000">0x0</text>
<polyline fill="none" stroke="#74af80" points="984.5,-0.5 984.5,-58"/>
<text text-anchor="middle" x="1029.25" y="-40.7" font-family="Times,serif" font-size="14.00" fill="#000000">Parent</text>
<text text-anchor="middle" x="1029.25" y="-24.2" font-family="Times,serif" font-size="14.00" fill="#000000">return</text>
<text text-anchor="middle" x="1029.25" y="-7.7" font-family="Times,serif" font-size="14.00" fill="#000000">0x103c00710</text>
<polyline fill="none" stroke="#74af80" points="1074,-0.5 1074,-58"/>
<text text-anchor="middle" x="1100.75" y="-40.7" font-family="Times,serif" font-size="14.00" fill="#000000">Right</text>
<text text-anchor="middle" x="1100.75" y="-24.2" font-family="Times,serif" font-size="14.00" fill="#000000">NONE</text>
<text text-anchor="middle" x="1100.75" y="-7.7" font-family="Times,serif" font-size="14.00" fill="#000000">0x0</text>
</g>
<!-- node0x103c00710&#45;&gt;node0x103c006d0 -->
<g id="edge14" class="edge">
<title>node0x103c00710:right&#45;&gt;node0x103c006d0</title>
<path fill="none" stroke="#48e818" stroke-width="2" d="M1029.75,-160C1029.75,-151.95 1029.73,-143.53 1029.7,-135.15"/>
<polygon fill="#48e818" stroke="#48e818" stroke-width="2" points="1033.21,-136.81 1029.67,-126.83 1026.21,-136.84 1033.21,-136.81"/>
</g>
</g>
</svg>
