<?xml version="1.0" encoding="UTF-8" standalone="no"?>
<!DOCTYPE svg PUBLIC "-//W3C//DTD SVG 1.1//EN"
 "http://www.w3.org/Graphics/SVG/1.1/DTD/svg11.dtd">
<!-- Generated by graphviz version 12.2.0 (20241103.1931)
 -->
<!-- Pages: 1 -->
<svg width="169pt" height="132pt"
 viewBox="0.00 0.00 168.50 132.00" xmlns="http://www.w3.org/2000/svg" xmlns:xlink="http://www.w3.org/1999/xlink">
<g id="graph0" class="graph" transform="scale(1 1) rotate(0) translate(4 128)">
<polygon fill="#dcdcdc" stroke="none" points="-4,4 -4,-128 164.5,-128 164.5,4 -4,4"/>
<!-- node0x105200b10 -->
<g id="node1" class="node">
<title>node0x105200b10</title>
<path fill="#bd3458" stroke="#7b0d1e" d="M12,-0.5C12,-0.5 148.5,-0.5 148.5,-0.5 154.5,-0.5 160.5,-6.5 160.5,-12.5 160.5,-12.5 160.5,-111.5 160.5,-111.5 160.5,-117.5 154.5,-123.5 148.5,-123.5 148.5,-123.5 12,-123.5 12,-123.5 6,-123.5 0,-117.5 0,-111.5 0,-111.5 0,-12.5 0,-12.5 0,-6.5 6,-0.5 12,-0.5"/>
<text text-anchor="middle" x="80.25" y="-106.2" font-family="Times,serif" font-size="14.00" fill="#000000">UNKNOWN WHAT</text>
<text text-anchor="middle" x="80.25" y="-89.7" font-family="Times,serif" font-size="14.00" fill="#000000">0x105200b10</text>
<polyline fill="none" stroke="#7b0d1e" points="0,-82.5 160.5,-82.5"/>
<text text-anchor="middle" x="80.25" y="-65.2" font-family="Times,serif" font-size="14.00" fill="#000000">TYPE: UNW</text>
<polyline fill="none" stroke="#7b0d1e" points="0,-58 160.5,-58"/>
<text text-anchor="middle" x="26.75" y="-40.7" font-family="Times,serif" font-size="14.00" fill="#000000">Left</text>
<text text-anchor="middle" x="26.75" y="-24.2" font-family="Times,serif" font-size="14.00" fill="#000000">NONE</text>
<text text-anchor="middle" x="26.75" y="-7.7" font-family="Times,serif" font-size="14.00" fill="#000000">0x0</text>
<polyline fill="none" stroke="#7b0d1e" points="53.5,-0.5 53.5,-58"/>
<text text-anchor="middle" x="80.25" y="-40.7" font-family="Times,serif" font-size="14.00" fill="#000000">Parent</text>
<text text-anchor="middle" x="80.25" y="-24.2" font-family="Times,serif" font-size="14.00" fill="#000000">NONE</text>
<text text-anchor="middle" x="80.25" y="-7.7" font-family="Times,serif" font-size="14.00" fill="#000000">0x0</text>
<polyline fill="none" stroke="#7b0d1e" points="107,-0.5 107,-58"/>
<text text-anchor="middle" x="133.75" y="-40.7" font-family="Times,serif" font-size="14.00" fill="#000000">Right</text>
<text text-anchor="middle" x="133.75" y="-24.2" font-family="Times,serif" font-size="14.00" fill="#000000">NONE</text>
<text text-anchor="middle" x="133.75" y="-7.7" font-family="Times,serif" font-size="14.00" fill="#000000">0x0</text>
</g>
</g>
</svg>
